<?xml version="1.0" standalone="no"?>
<!DOCTYPE svg PUBLIC "-//W3C//DTD SVG 1.1//EN" "http://www.w3.org/Graphics/SVG/1.1/DTD/svg11.dtd" >
<svg xmlns="http://www.w3.org/2000/svg">
<metadata></metadata>
<defs>
<font id="mkabelregular" horiz-adv-x="1220" >
<font-face units-per-em="2048" ascent="1638" descent="-410" />
<missing-glyph horiz-adv-x="509" />
<glyph horiz-adv-x="0" />
<glyph horiz-adv-x="682" />
<glyph horiz-adv-x="608" d="M14 1522q49 -281 285 -281t285 281h-82q-49 -190 -205 -191q-154 0 -205 191h-78z" />
<glyph horiz-adv-x="442" d="M113 1391q0 -86 73 -86q76 0 76 86t-76 86q-74 0 -73 -86z" />
<glyph horiz-adv-x="491" d="M63 1403q0 -72 50 -127q51 -51 127 -51q74 0 122 51q56 55 56 127q0 70 -56 125q-53 55 -122 55q-72 0 -127 -55q-49 -53 -50 -125zM141 1401q0 104 99 104q98 0 98 -104q0 -100 -98 -101q-98 0 -99 101z" />
<glyph unicode="&#xa;" horiz-adv-x="577" d="M18 1247h105l160 277l-156 -2zM281 1247h100l164 277l-156 -2z" />
<glyph horiz-adv-x="483" d="M61 -244q0 -170 168 -170q115 0 193 68l-12 80q-76 -61 -152 -62q-88 0 -88 109q0 68 53 125q60 65 205 106l-84 21q-283 -74 -283 -277z" />
<glyph horiz-adv-x="544" d="M18 1524l175 -264h147l176 264h-127l-125 -201l-117 201h-129z" />
<glyph unicode="&#xd;" horiz-adv-x="405" d="M135 -16l117 20v1145l-35 -2l-82 -21v-1142z" />
<glyph horiz-adv-x="215" d="M-313 -20h104l834 1540h-103z" />
<glyph horiz-adv-x="851" d="M-8 1049l117 -2v-1539l120 27v1518h322v108h-313v86q0 119 47 160q39 37 143 37q94 0 94 -21l13 2l-9 109q-23 10 -49 18.5t-51 8.5q-317 0 -317 -304v-96h-105zM684 -14l125 18v1165l-31 5l-94 -15v-1173zM692 1513q0 -68 62 -67q57 -1 57 67q0 70 -57 70q-61 0 -62 -70 z" />
<glyph horiz-adv-x="870" d="M-2 1028h121v-1325l117 16v1315h223v107h-219v96q0 117 49 164q41 41 137 41q35 0 67.5 -5t65.5 -10l19 117l-132 17q-332 0 -331 -314v-106h-103zM616 -16l117 20v1540l-117 -18v-1542z" />
<glyph unicode=" "  horiz-adv-x="509" />
<glyph unicode="&#x09;" horiz-adv-x="509" />
<glyph unicode="&#xa0;" horiz-adv-x="509" />
<glyph unicode="!" horiz-adv-x="348" d="M80 100q0 -106 98 -106q98 -1 98 108q0 111 -100 111q-96 0 -96 -113zM113 1534l16 -328l6 -749l96 2l17 760l14 325z" />
<glyph unicode="&#x22;" horiz-adv-x="526" d="M100 1010h107v495h-107v-495zM342 1010h107v495h-107v-495z" />
<glyph unicode="#" horiz-adv-x="935" d="M-8 461h180l-61 -467h116l60 459h262l-62 -459h119l58 459h178l2 118h-156l43 355h168l2 116h-166l58 463h-107l-59 -458h-267l60 458h-115l-61 -469h-193l-2 -110h180l-45 -355h-188zM305 573l45 351h256l-47 -351h-254z" />
<glyph unicode="$" horiz-adv-x="940" d="M78 291q45 -96 134 -163t206 -81v-180h108v182q139 14 226 98q106 103 106 279q0 145 -80 236q-76 82 -248 149v530q39 -10 76 -34q66 -41 125 -123l80 69q-49 66 -124 119t-165 70v166h-104v-160q-127 -14 -215 -100q-100 -100 -101 -265q0 -150 91 -231 q70 -63 221 -127v-569q-72 18 -125 61q-45 35 -75 68.5t-52 68.5zM225 1096q0 88 43 153.5t142 87.5v-481q-86 41 -135.5 92t-49.5 148zM528 152v532q43 -20 77 -40.5t59 -41.5q75 -63 75 -186q0 -119 -73 -195q-55 -55 -138 -69z" />
<glyph unicode="%" horiz-adv-x="1325" d="M8 1139q0 -86 16.5 -155t55.5 -122q76 -106 199 -106t198 106q76 103 76 275q0 174 -72 276q-76 106 -202 107q-125 0 -199 -107q-72 -102 -72 -274zM113 1133q0 152 44 223t130 71q82 0 124 -71t42 -223q0 -285 -166 -285q-174 0 -174 285zM139 -20h113l858 1525h-84 l-317 -542q-180 -305 -320.5 -549t-249.5 -434zM696 360q0 -174 72 -276q76 -106 201 -107q125 0 198 107q74 104 74 274q0 88 -16.5 157t-53.5 122q-74 109 -202 108q-123 0 -201 -108q-72 -106 -72 -277zM803 358q0 297 172 297q168 0 168 -297q0 -287 -166 -286 q-86 0 -130 69.5t-44 216.5z" />
<glyph unicode="&#x26;" horiz-adv-x="1044" d="M23 360q0 -154 94 -266q100 -121 264 -121q59 0 119.5 25t120.5 78q43 37 73.5 65.5t50.5 51.5q109 -121 230 -189l45 92q-80 61 -197 197q23 31 43.5 62.5t38.5 62.5q29 49 55.5 109.5t51.5 138.5l-105 39q-23 -59 -44 -106.5t-42 -88.5q-14 -29 -31.5 -57.5 t-37.5 -59.5q-72 96 -144.5 205t-146.5 231q55 43 145 144q111 123 111 266q0 129 -70 217q-68 80 -166 80q-272 0 -272 -328q0 -53 7 -98t19.5 -87t30 -84t39.5 -87q-53 -43 -102 -92t-90 -107q-90 -123 -90 -293zM152 373q0 135 81 237q33 41 68 75t70 63 q41 -70 77.5 -132.5t71.5 -119.5q72 -119 146 -205l4 -2q-33 -35 -65 -68t-66 -61q-82 -70 -162 -70q-92 0 -158 78q-68 76 -67 205zM328 1208q0 117 36.5 171.5t104.5 54.5q125 0 125 -170q0 -123 -92 -234q-49 -61 -99 -100q-10 16 -20 45q-6 16 -13.5 29.5t-11.5 29.5 q-31 86 -30 174z" />
<glyph unicode="'" horiz-adv-x="382" d="M152 1010h104v495h-104v-495z" />
<glyph unicode="(" horiz-adv-x="507" d="M31 627q0 -115 17.5 -230.5t54 -224.5t96 -210t143.5 -189l74 67q-59 66 -105.5 144.5t-81.5 177.5q-78 221 -77 467q0 244 77 465q35 98 81 179t106 146l-72 64q-170 -178 -241.5 -401.5t-71.5 -454.5z" />
<glyph unicode=")" horiz-adv-x="501" d="M76 -160l74 -67q137 145 217 344q94 231 94 510q0 115 -17.5 229.5t-54.5 224t-96.5 211t-142.5 189.5l-68 -64q55 -66 101 -146.5t81 -178.5q76 -213 76 -465q0 -244 -78 -465q-35 -98 -81 -177t-105 -145z" />
<glyph unicode="*" horiz-adv-x="876" d="M152 1294l225 -123l-221 -120l47 -86l219 125l-6 -232h102l-4 232l217 -127l49 88l-221 120l221 123l-51 90l-215 -122l2 256h-96l2 -265l-221 125z" />
<glyph unicode="+" horiz-adv-x="1105" d="M72 485h397v-450h119v450h395v115h-395v442h-119v-442h-397v-115z" />
<glyph unicode="," horiz-adv-x="518" d="M72 -352h106q41 86 80 159.5t78 141.5q43 74 61 125t6 80l-24 57q-43 23 -82 38t-90 -9q-33 -14 -50.5 -38t-25.5 -57q-6 -27 8 -67q0 -10 3 -17.5t5 -11.5q4 -4 7 -4v-14q4 -20 8 -33q2 -12 -8 -53l-31 -131z" />
<glyph unicode="-" horiz-adv-x="559" d="M18 559h404v105h-404v-105z" />
<glyph unicode="." horiz-adv-x="464" d="M78 100q0 -106 100 -106q98 0 98 106q0 111 -98 111q-100 0 -100 -111z" />
<glyph unicode="/" horiz-adv-x="684" d="M-92 -147h112l689 1667h-113z" />
<glyph unicode="0" horiz-adv-x="876" d="M31 750q0 -350 102 -568q104 -221 287 -221q178 0 287 221q102 218 102 568q0 354 -100 567q-53 111 -124 167t-163 56q-184 0 -289 -223q-102 -217 -102 -567zM166 750q0 301 67 483q66 184 187 184q117 0 186 -184q70 -178 70 -483q0 -303 -70 -486q-66 -184 -184 -184 q-125 0 -191 184q-35 90 -50 211t-15 275z" />
<glyph unicode="1" horiz-adv-x="960" d="M174 1327l16 -90l324 113v-1364l143 16v1540l-84 -10z" />
<glyph unicode="2" horiz-adv-x="937" d="M39 -6h813l12 112h-624q51 119 145 227.5t188 201.5q55 53 106.5 114.5t89.5 129t61.5 140t23.5 148.5q0 201 -113 338q-113 135 -282 135q-174 0 -287 -135q-117 -131 -125 -324q-2 -61 29 -141q2 -2 6 -12t8 -21.5t9 -20.5t10 -12q8 -4 10 3v2l94 22l-2 15 q-2 16 -10 44.5t-13.5 61.5t-9.5 70q8 137 88 231q80 98 199 98q102 0 180 -90q74 -90 74 -221q0 -135 -58.5 -234.5t-150.5 -197.5q-66 -68 -132.5 -141.5t-128 -151.5t-116.5 -159t-94 -163v-69z" />
<glyph unicode="3" horiz-adv-x="937" d="M25 254q53 -125 147 -203q109 -90 256 -90q188 0 303 123q117 123 117 326q0 297 -225 389q195 113 194 344q0 176 -102 284q-102 113 -269 113q-66 0 -122 -18.5t-104 -51t-89 -74.5t-74 -89l95 -78q25 35 53 68.5t63 61t78 44t92 16.5q113 0 180.5 -77.5t67.5 -200.5 q0 -297 -309 -291l-94 2v-125l96 2q332 6 332 -342q0 -307 -289 -307q-100 0 -189 82q-68 61 -108 151z" />
<glyph unicode="4" horiz-adv-x="946" d="M-12 397h534v-417l121 20v395h248l4 113h-246v1034h-98l-563 -1077v-68zM172 516l328 731v-731h-328z" />
<glyph unicode="5" horiz-adv-x="931" d="M29 217q57 -119 143 -180q100 -76 238 -76q184 0 303 143q116 142 116 363t-108 364q-111 143 -293 144q-57 0 -109.5 -17.5t-97.5 -54.5l25 490h483l12 112h-612l-29 -782l56 -10q123 147 270 147q117 0 197 -106q76 -106 75 -279q0 -172 -82 -285q-80 -113 -202 -112 q-90 0 -172 65q-66 53 -113 146z" />
<glyph unicode="6" horiz-adv-x="937" d="M35 592q0 -293 123 -467q115 -164 291 -164q186 0 303 150q118 150 118 381q0 215 -110.5 356t-282.5 141q-98 0 -164.5 -44t-119.5 -111q16 86 39.5 159.5t54.5 141.5q20 47 50 96t66.5 93t82.5 80t104 54q29 10 73 13.5t74 7.5l-2 90q-45 2 -94 4t-92 -14 q-231 -84 -373 -357q-141 -270 -141 -610zM170 565q51 160 123 228q84 82 182 81q256 1 256 -374q0 -193 -72 -305q-74 -117 -190 -117q-127 0 -213 123q-41 59 -63.5 150t-22.5 214z" />
<glyph unicode="7" horiz-adv-x="940" d="M76 1386h657l-508 -1400l140 8l503 1440v71h-780z" />
<glyph unicode="8" horiz-adv-x="937" d="M23 385q0 -182 118 -305q121 -119 310 -119q188 0 307 119t119 307q0 281 -275 401q238 125 238 351q0 174 -105 288q-109 113 -278 113q-178 0 -287 -115q-55 -57 -81 -130.5t-26 -168.5q0 -117 61.5 -200.5t172.5 -139.5q-274 -117 -274 -401zM156 383q0 272 276 350 q311 -68 311 -344q0 -137 -84 -225q-80 -86 -213 -86q-129 0 -208 84q-82 84 -82 221zM188 1137q0 285 275 284q250 1 250 -282q0 -260 -258 -303q-266 55 -267 301z" />
<glyph unicode="9" horiz-adv-x="937" d="M33 1006q0 -213 106 -357q106 -141 281 -141q109 0 192 61q23 16 44.5 40t48.5 59q-12 -84 -37 -159t-58 -142q-29 -59 -54.5 -112.5t-59.5 -100.5q-35 -51 -82 -67.5t-103 -23.5q-27 -4 -51 -3t-53 3l-17 -73q0 -10 62 -31q35 -10 60.5 -9t47.5 3q76 6 129.5 40t93.5 86 t71.5 116.5t62.5 130.5q27 57 53.5 121.5t48 138t35.5 154.5t14 171q0 145 -32.5 260t-96.5 203q-121 166 -295 166q-182 0 -299 -151q-113 -154 -112 -383zM168 995q0 195 72 308q70 117 186 116q129 0 217 -125q82 -122 86 -362q-49 -160 -123 -232q-88 -82 -182 -82 q-121 0 -188 103q-68 100 -68 274z" />
<glyph unicode=":" horiz-adv-x="464" d="M152 100q0 -106 98 -106t98 106q0 111 -98 111t-98 -111zM152 825q0 -111 98 -110q98 -1 98 110q0 109 -98 109t-98 -109z" />
<glyph unicode=";" horiz-adv-x="464" d="M76 -352h98q39 86 79 159.5t79 141.5q43 74 61 125t6 80l-24 57q-23 10 -43.5 20.5t-41 15.5t-42 4t-47.5 -13q-59 -29 -74 -95q-6 -25 6 -67q2 -10 5 -17.5t5 -11.5q2 -2 5.5 -4t7.5 4v2q6 -6 6 -16q0 -8 2 -16.5t4 -14.5q2 -10 0 -22.5t-6 -30.5l-33 -133zM164 825 q0 -111 98 -110q98 -1 98 110q0 109 -98 109t-98 -109z" />
<glyph unicode="&#x3c;" horiz-adv-x="1105" d="M70 489l919 -458v125l-768 383l766 383v118l-917 -454v-97z" />
<glyph unicode="=" horiz-adv-x="1089" d="M57 285h912v116h-912v-116zM57 674h912v117h-912v-117z" />
<glyph unicode="&#x3e;" horiz-adv-x="1103" d="M72 926l778 -389l-774 -387v-115l915 452v99l-919 454v-114z" />
<glyph unicode="?" horiz-adv-x="665" d="M16 1292l105 -53q23 51 44 87t44 58q51 55 121 56q74 0 123 -70q49 -72 49 -172q0 -90 -23 -154q-14 -39 -36.5 -75.5t-57.5 -71.5q-66 -59 -99.5 -127t-33.5 -149v-156l102 6v90q0 92 17 135q18 39 104 135q156 174 156 383q0 139 -78 240q-80 104 -221 105 q-109 0 -195 -80q-39 -35 -67.5 -81t-53.5 -106zM209 98q0 -109 100 -108q101 -1 101 110t-103 111q-98 0 -98 -113z" />
<glyph unicode="@" horiz-adv-x="1507" d="M72 506q0 -326 198 -555q205 -238 516 -238l-6 103q-233 0 -407 192q-184 199 -185 488q0 143 45.5 266t131.5 221q174 201 417 201q221 0 373 -160q150 -152 150 -373q0 -174 -84 -327q-74 -135 -164 -172v575q0 301 -271 301q-168 0 -256 -90l27 -88q80 74 225 74 q158 0 158 -176v-101q-29 8 -57.5 13.5t-57.5 5.5h-20h-39q-70 -10 -126 -38t-97 -75q-86 -92 -86 -234q0 -131 73 -219q72 -90 193 -90q125 0 219 137l8 -127l58 3l59 12q145 47 248 217q108 178 108 389q0 266 -180 453q-186 195 -463 194q-293 0 -504 -239 q-205 -233 -204 -543zM563 317q0 104 56.5 172t175.5 78q8 2 11 3t7 1q37 0 66 -20q45 -25 53 -82v-150q-10 -76 -72 -137q-68 -68 -141 -67q-68 0 -113 61q-43 61 -43 141z" />
<glyph unicode="A" horiz-adv-x="1019" d="M-63 -6l124 -14l189 544h502l194 -544l123 14l-524 1526h-90zM311 651l185 662l192 -662h-377z" />
<glyph unicode="B" horiz-adv-x="952" d="M78 -6h385q426 0 426 424q0 272 -225 364q102 47 145 135.5t43 186.5q0 401 -422 401h-352v-1511zM209 115v596h184q355 -1 355 -316q0 -280 -352 -280h-3h-184zM209 831v553h194q314 0 314 -276t-338 -277h-170z" />
<glyph unicode="C" horiz-adv-x="985" d="M16 748q0 -352 152 -568q152 -219 403 -219q109 0 199 72q53 41 90 96t58 129l-84 70q-41 -137 -117 -197q-66 -53 -139 -53q-188 0 -306 186q-114 184 -114 476v5q0 295 114 482q119 188 308 188q78 0 137 -49q68 -59 119 -197l84 66q-33 137 -138 223q-92 78 -207 78 q-246 0 -403 -225q-156 -223 -156 -563z" />
<glyph unicode="D" horiz-adv-x="1064" d="M74 -6h311q291 0 455 205q166 203 166 549q0 340 -160 548q-164 209 -436 209h-336v-1511zM205 115v1269h174q489 0 489 -639q0 -630 -534 -630h-2h-127z" />
<glyph unicode="E" horiz-adv-x="919" d="M78 -6h778l6 115h-653v602h450v120h-450v564h606l-8 110h-729v-1511z" />
<glyph unicode="F" horiz-adv-x="745" d="M96 -10l127 8v731l430 -2l-2 111l-428 -4v561h488l-11 110h-604v-1515z" />
<glyph unicode="G" horiz-adv-x="1110" d="M8 748q0 -340 158 -566q156 -221 409 -221q109 0 187 44t149 134l37 -149h76v764h-504l-20 -123h383v-236q-39 -317 -305 -317q-186 0 -308 188q-59 94 -87.5 213t-28.5 266q0 303 116 488q119 186 322 186q92 0 172 -63q90 -72 137 -217l113 61q-29 72 -69 133.5 t-94 106.5t-126 70.5t-162 25.5q-248 0 -401 -221q-154 -225 -154 -567z" />
<glyph unicode="H" horiz-adv-x="1114" d="M86 -10l119 10v717h672v-727l120 10v1520l-127 -11v-653l-661 -4v668l-123 -11v-1519z" />
<glyph unicode="I" horiz-adv-x="368" d="M145 -10l121 10v1520l-121 -11v-1519z" />
<glyph unicode="J" horiz-adv-x="712" d="M-14 133q25 -68 92 -117q76 -55 182 -55q326 0 326 440v1119l-133 -11v-1077q0 -176 -47.5 -259t-143.5 -83q-63 0 -108 31t-76 100z" />
<glyph unicode="K" horiz-adv-x="907" d="M72 -10l123 8v799h120l467 -797l152 29l-504 858l449 612l-136 21l-450 -621h-96v621l-125 -11v-1519z" />
<glyph unicode="L" horiz-adv-x="761" d="M86 -6h643l14 115h-528v1411l-129 -11v-1515z" />
<glyph unicode="M" horiz-adv-x="1298" d="M16 2l136 -14l94 1222l342 -1230h78l338 1230l98 -1220l135 8l-141 1524h-129l-338 -1241l-346 1241h-121z" />
<glyph unicode="N" horiz-adv-x="1136" d="M76 -10l129 8v1216l727 -1222l6 -17h80v1545l-135 -11v-1140l-690 1153h-117v-1532z" />
<glyph unicode="O" d="M4 748q0 -340 162 -564q166 -223 420 -223q252 0 418 223q163 226 163 564q0 340 -163 563q-166 225 -418 225q-256 0 -420 -225q-162 -227 -162 -563zM145 745q0 295 123 483.5t318 188.5q197 0 319 -188q123 -185 123 -484q0 -295 -123 -481q-119 -186 -319 -186 q-199 0 -318 186q-123 186 -123 481z" />
<glyph unicode="P" horiz-adv-x="870" d="M76 -10l125 8v600h143q481 0 481 461q0 209 -118 327q-121 121 -321 121h-7l-225 -2h-78v-1515zM203 719v665h162h2q323 0 323 -321q0 -344 -364 -344h-123z" />
<glyph unicode="Q" d="M4 748q0 -340 162 -564q156 -211 393 -223l-35 -55l445 -318l75 121l-450 252q248 2 410 223q164 225 163 564q0 340 -163 563q-166 225 -418 225q-256 0 -420 -225q-162 -227 -162 -563zM145 745q0 295 123 483.5t318 188.5q197 0 319 -188q123 -185 123 -484 q0 -295 -123 -481q-119 -186 -319 -186q-199 0 -318 186q-123 186 -123 481z" />
<glyph unicode="R" horiz-adv-x="874" d="M92 -10l121 10v657h164l29 -52q28 -52 80.5 -143t124 -213t157.5 -263l121 24q-53 88 -112.5 182.5t-106.5 180.5q-29 51 -68 122.5t-90 166.5q135 37 213 143q88 109 88 258q0 442 -438 442h-283v-1515zM217 776v608h170q289 0 289 -319q0 -289 -289 -289h-170z" />
<glyph unicode="S" horiz-adv-x="956" d="M23 319q61 -193 186 -280q109 -78 264 -78q188 0 299 117q113 118 113 317q0 305 -379 445q-70 25 -120 54.5t-85 59.5q-86 82 -86 195q0 272 264 272q57 0 102.5 -23.5t79 -60.5t56 -81t39.5 -85l102 60q-125 305 -395 305q-170 0 -277 -117q-106 -119 -106 -297 q0 -158 98 -256q80 -82 275 -161q158 -68 221 -134q74 -74 74 -202q0 -123 -76 -209q-76 -82 -191 -82q-119 0 -215 88q-90 80 -127 205z" />
<glyph unicode="T" horiz-adv-x="858" d="M-27 1384h377v-1394l119 10v1389h367l-5 116h-841z" />
<glyph unicode="U" horiz-adv-x="1056" d="M59 473q0 -512 447 -512q440 0 440 522v1037l-131 -11v-981q0 -225 -80 -333.5t-235 -108.5q-307 0 -307 426v1008l-134 -11v-1036z" />
<glyph unicode="V" horiz-adv-x="962" d="M-76 1505l500 -1525h47l526 1525l-139 15l-409 -1237l-383 1237z" />
<glyph unicode="W" horiz-adv-x="1380" d="M-90 1501l373 -1521h82l284 1173l279 -1173h82l391 1521l-141 19l-275 -1182l-283 1184l-88 2l-292 -1194l-277 1190z" />
<glyph unicode="X" horiz-adv-x="929" d="M-59 29l137 -27l368 676l375 -678l148 29l-443 762l359 677l-133 27l-306 -584l-323 584l-133 -27l377 -671z" />
<glyph unicode="Y" horiz-adv-x="878" d="M-78 1505l447 -907l-115 -608l125 8l117 565l422 942l-140 15l-340 -789l-379 789z" />
<glyph unicode="Z" horiz-adv-x="956" d="M0 -6h899l12 115h-723l697 1316v80h-813l-15 -121h645l-702 -1327v-63z" />
<glyph unicode="[" horiz-adv-x="456" d="M84 -236v-10h315v109h-178l2 31v1480l-6 31h182v100h-315v-12q18 0 18 -18v-1692q0 -18 -18 -19z" />
<glyph unicode="\" horiz-adv-x="532" d="M-164 1520l676 -1543h119l-680 1543h-115z" />
<glyph unicode="]" horiz-adv-x="473" d="M53 -143v-103h312v10q-18 0 -19 19v1692q0 18 27 18v12h-320v-106h180l-4 -31v-1481l2 -30h-178z" />
<glyph unicode="^" horiz-adv-x="1101" d="M74 604h121l327 748l326 -750h131l-408 903h-92z" />
<glyph unicode="_" horiz-adv-x="811" d="M-47 -600v-111h909v111h-909z" />
<glyph unicode="`" horiz-adv-x="464" d="M4 1524l197 -275h102l-143 273z" />
<glyph unicode="a" horiz-adv-x="802" d="M10 332q0 -162 86 -262q88 -104 226 -105q147 0 262 176l6 -151l39 4h96v12q-23 4 -23 8q0 14 -2 21v69v727q0 358 -305 359q-190 0 -289 -111l31 -102q92 98 256 98q182 0 182 -225v-125q-55 20 -108 23q-10 0 -22.5 1t-28.5 1l-45 -2q-156 -25 -258.5 -135.5 t-102.5 -280.5zM133 332q0 256 244 299q25 8 53 8q37 0 76 -23q53 -31 65 -102v-182q-12 -88 -86 -166q-78 -80 -166 -80q-84 0 -135 73.5t-51 172.5z" />
<glyph unicode="b" horiz-adv-x="964" d="M63 -14l76 4l27 147q8 -16 17.5 -33.5t25.5 -35.5q47 -53 116.5 -78t174.5 -25q174 0 291 168q116 172 116 430q0 272 -112 451q-113 174 -295 174q-188 0 -314 -187v543l-123 -18v-1540zM199 438v281q0 133 88 244q91 110 203 110h2q129 0 208 -143q78 -146 78 -373 q0 -201 -78 -338q-82 -135 -198 -135q-111 0 -197 100q-88 102 -106 254z" />
<glyph unicode="c" horiz-adv-x="854" d="M27 573q0 -281 112 -442q117 -166 318 -166q227 0 327 250l-90 68q-16 -41 -36.5 -75t-51.5 -63q-71 -65 -151 -65h-2q-137 0 -217 135q-78 137 -78 363q0 497 312 497h1q70 0 135 -61q27 -27 43.5 -54.5t28.5 -62.5l94 70q-106 221 -313 221q-201 0 -318 -170 q-115 -170 -114 -445z" />
<glyph unicode="d" horiz-adv-x="972" d="M31 563q0 -260 116 -428q117 -170 299 -170q209 0 299 166v-149l121 12v1550l-121 -18v-516q-117 178 -288 178q-182 0 -303 -180q-123 -182 -123 -445zM162 557q0 225 80 371q82 145 209 145q109 0 194 -104q41 -51 67.5 -112.5t26.5 -133.5v-289q-10 -72 -35.5 -133 t-68.5 -115q-86 -104 -186 -104q-121 0 -203 135q-84 137 -84 340z" />
<glyph unicode="e" horiz-adv-x="851" d="M18 578q0 -281 115 -447q117 -166 322 -166q229 0 360 262l-74 82q-27 -49 -57.5 -87t-65.5 -68q-86 -74 -172 -74q-141 0 -223 139q-51 96 -69 250l647 272q-14 90 -35 169t-80 157q-94 121 -244 121q-197 0 -311 -170q-113 -172 -113 -440zM152 588q4 223 77 348 q80 137 224 137q37 0 72.5 -16.5t65.5 -51t50.5 -86.5t26.5 -122z" />
<glyph unicode="f" horiz-adv-x="432" d="M-8 1049l119 -2v-1539l120 27v1518h222v108h-213v94q0 113 32 152q33 37 113 37l55 -8l-14 110l-8 4q-307 0 -307 -295v-94h-107z" />
<glyph unicode="g" horiz-adv-x="886" d="M-16 -160v-41q0 -147 129 -276q133 -131 297 -131q197 0 313 141q61 74 97 181.5t36 248.5q0 70 -30.5 116t-84.5 68q-54 23 -162 23q-35 0 -75 -2q-26 -2 -50 -2q-131 0 -200 47q-45 32 -45 79q0 53 57 126q55 -25 174 -25q152 0 256 111q102 113 103 274 q0 164 -103 279q16 4 39 6q8 0 24.5 1t45.5 -1l59 -2v127q0 8 -26 8h-11q-14 0 -36.5 -3t-51.5 -7q-41 -10 -82 -17.5t-82 -17.5q-61 37 -155 37q-152 0 -256 -117q-102 -117 -103 -295q0 -174 107 -282q8 -8 12 -15l15 -10q-16 -23 -34 -47.5t-38 -50.5q-51 -65 -51 -124 v-9q8 -113 147 -154q39 -12 98.5 -17.5t137.5 -7.5q63 0 114.5 -2t94.5 -6q70 -12 69 -131q0 -207 -92 -319q-86 -102 -211 -103q-133 0 -240 123q-94 106 -94 217q0 25 5 56.5t5 72.5q2 10 1 16.5t-1 10.5l5 4q0 4 -5 3l-4 -1l-6 8v-2l-96 -6q-6 -6 -9 -33.5t-5 -61.5 t-2 -65zM174 770q0 121 76 209q80 88 186 88q111 0 182 -84q35 -41 52.5 -94t17.5 -121q0 -125 -72 -203q-39 -41 -85 -50t-105 -9q-53 0 -99 9t-81 50q-72 82 -72 205z" />
<glyph unicode="h" horiz-adv-x="839" d="M72 -14l127 18v801q33 111 102 188q76 86 158 86q78 0 117.5 -59t39.5 -186v-848l127 18v766q0 418 -284 418q-145 0 -262 -160v516l-125 -18v-1540z" />
<glyph unicode="i" horiz-adv-x="407" d="M106 1505q0 -78 82 -78t82 80t-82 80t-82 -82zM127 -14l129 18v1163l-39 -2l-90 -20v-1159z" />
<glyph unicode="j" horiz-adv-x="368" d="M-63 -506l22 -112h18q141 0 205 135t64 399v1251l-33 -2l-94 -20v-1227q0 -190 -37 -272q-23 -55 -52.5 -99.5t-92.5 -52.5zM102 1505q0 -78 80 -78q78 0 78 80t-78 80q-80 0 -80 -82z" />
<glyph unicode="k" horiz-adv-x="718" d="M68 -14l127 18v598l71 -4l363 -610h20l90 28l-377 654l328 465l-127 24l-299 -467h-69v852l-127 -18v-1540z" />
<glyph unicode="l" horiz-adv-x="405" d="M131 -14l125 18v1540l-125 -18v-1540z" />
<glyph unicode="m" horiz-adv-x="1316" d="M41 -14l129 18v807q33 119 96 188q68 80 150 80q147 0 147 -248v-845l131 18v823q37 113 97 179q67 73 149 73h2q143 0 143 -248v-845l129 18v764q0 420 -264 420q-88 0 -158.5 -46t-117.5 -112q-35 68 -95.5 113t-148.5 45q-145 0 -262 -156v135l-127 -14v-1167z" />
<glyph unicode="n" horiz-adv-x="841" d="M61 -14l129 18v807q31 106 103 184q78 84 158 84q78 0 117.5 -59t39.5 -186v-848l127 18v766q0 418 -284 418q-145 0 -263 -160v139l-127 -14v-1167z" />
<glyph unicode="o" horiz-adv-x="927" d="M18 578q0 -276 115 -443q117 -170 311 -170q193 0 314 170q116 169 116 443q0 268 -114 438q-117 172 -316 172q-195 0 -311 -172q-115 -170 -115 -438zM147 578q0 219 80 358q84 139 217 139q135 0 220 -139q81 -141 81 -358q0 -227 -81 -365q-84 -135 -220 -135 q-137 0 -217 135q-80 137 -80 365z" />
<glyph unicode="p" horiz-adv-x="960" d="M59 -578l125 29v676q104 -162 299 -162q176 0 293 170q121 172 121 422q0 281 -113 455q-117 176 -307 176q-172 0 -291 -184v163l-127 -14v-1731zM195 432v283q29 182 102.5 269t187.5 87q129 0 205 -145q78 -144 78 -375q0 -197 -84 -334q-84 -135 -201 -135 q-109 0 -192 108q-43 53 -69.5 114t-26.5 128z" />
<glyph unicode="q" horiz-adv-x="974" d="M31 559q0 -254 120.5 -424t301.5 -170q178 0 295 189v-732l118 27v1696v24l-121 -10v-153q-109 182 -282 182q-190 0 -309 -180q-123 -182 -123 -449zM162 561q0 225 80 367q80 143 207 143q236 0 296 -346v-285q0 -72 -27.5 -134t-72.5 -118q-89 -108 -190 -108h-2 q-127 0 -209 135q-82 137 -82 346z" />
<glyph unicode="r" horiz-adv-x="487" d="M74 -14l127 18v643q25 168 102 299q37 61 82 82t98 21v6l13 125q-102 0 -173 -57.5t-118 -170.5v215l-131 -14v-1167z" />
<glyph unicode="s" horiz-adv-x="768" d="M18 172q127 -209 344 -209q147 0 239.5 94t92.5 254q0 238 -305 336q-205 68 -205 227q0 201 193 201q72 0 131 -44t94 -97l76 78q-115 176 -318 176q-121 0 -206 -92q-88 -94 -88 -236q0 -135 84 -215q35 -35 89 -62.5t126 -52.5q109 -35 159.5 -96t50.5 -145 q0 -211 -204 -211q-94 0 -152.5 48t-99.5 118z" />
<glyph unicode="t" horiz-adv-x="466" d="M-8 1047h112v-771q0 -305 271 -305q53 1 125 17v123q-10 -4 -22.5 -6.5t-22.5 -2.5q-14 -4 -31 -4h-35q-156 0 -156 170v781h242v112h-242v334q-16 -10 -59 -22q-45 -10 -65 -23v-289h-105z" />
<glyph unicode="u" horiz-adv-x="841" d="M66 397q0 -432 268 -432q162 0 282 166v-137l117 8v1157l-123 -14v-737q-18 -150 -84 -244q-70 -94 -176 -94q-78 0 -119 76.5t-41 240.5v772l-124 -14v-748z" />
<glyph unicode="v" horiz-adv-x="739" d="M-55 1161l370 -1177h86l369 1177l-133 10l-277 -966l-292 966z" />
<glyph unicode="w" horiz-adv-x="1243" d="M-78 1161l340 -1177h64l266 897l270 -897h58l348 1177l-135 10l-236 -919l-260 919l-78 -6l-266 -921l-244 927z" />
<glyph unicode="x" horiz-adv-x="747" d="M-37 12l127 -18l264 500l277 -492l133 25l-342 573l285 520l-123 21l-230 -434l-252 448l-127 -25l312 -530z" />
<glyph unicode="y" horiz-adv-x="755" d="M-61 1161l387 -1071l-127 -414q-10 -57 -32 -104t-44 -80q-16 -27 -36.5 -35t-39.5 -8v-78q16 -8 43 -8t43 4q55 2 90 82t76 209l483 1503l-133 10l-266 -913l-303 913z" />
<glyph unicode="z" horiz-adv-x="849" d="M8 -6h770l10 110h-616l612 996v55h-682l-14 -115h500l-580 -979v-67z" />
<glyph unicode="{" horiz-adv-x="589" d="M90 602q119 -12 119 -203v-383q0 -51 8 -98t32.5 -84t67.5 -58.5t113 -21.5h45v56h-31q-25 6 -45 18t-32 35q-33 53 -33 170v303q0 233 -115 293q117 57 117 295v305q0 119 31 172q25 43 77 53h31v51h-45q-68 0 -111 -22.5t-67.5 -59.5t-32.5 -85t-8 -99v-385 q0 -188 -121 -201v-51z" />
<glyph unicode="|" horiz-adv-x="425" d="M141 -262h125v1737h-125v-1737z" />
<glyph unicode="}" horiz-adv-x="587" d="M94 -195v-51h45q68 0 111 21.5t67.5 57.5t33.5 83t9 98v383q0 191 119 203v55q-119 12 -119 201v383q0 51 -8 99t-31.5 85t-65.5 59.5t-110 22.5h-45v-55h27q53 -10 76 -53q31 -53 30 -170v-305q0 -238 123 -295q-119 -57 -118 -295v-303q0 -117 -33 -170 q-25 -43 -80 -54h-31z" />
<glyph unicode="~" horiz-adv-x="1105" d="M98 494l54 -86q45 78 87 113.5t87 35.5t176 -70q133 -70 221 -69q78 0 149 55q58 47 91 117l-58 90q-47 -80 -90 -116t-84 -36q-23 0 -66.5 14.5t-109.5 49.5t-120 54.5t-99 19.5q-41 0 -77 -15.5t-66.5 -40t-55 -55.5t-39.5 -61z" />
<glyph unicode="&#xa1;" horiz-adv-x="346" d="M94 1049q0 -109 101 -109q96 0 96 111t-98 110q-98 0 -99 -112zM104 -391l154 10l-14 313l-6 764l-99 -6l-18 -727z" />
<glyph unicode="&#xa2;" horiz-adv-x="923" d="M100 805q0 -236 90 -369q61 -92 177 -127v-293l118 13v276q53 12 107 60q65 61 102 174l-92 69q-6 -20 -17.5 -45.5t-26.5 -51.5t-33.5 -47.5t-39.5 -33.5v756q33 -12 54 -49q18 -29 28.5 -53.5t12.5 -51.5l112 80q-29 66 -83 123t-132 74v229l-106 -10v-228 q-119 -31 -183 -131q-88 -133 -88 -364zM233 805q0 184 54 285q23 41 71 73v-719q-47 35 -71 80q-53 104 -54 281z" />
<glyph unicode="&#xa3;" horiz-adv-x="919" d="M-23 150q0 -170 111 -170q66 0 125 79q92 -31 198.5 -55t209.5 -24q133 0 202 90q66 83 84 245l-110 33q-10 -68 -19.5 -110.5t-23.5 -65.5q-41 -66 -140 -66q-45 0 -110 27l-123 51l12 105l-8 428h236v123h-236q-8 61 -15.5 123.5t-7.5 121.5q0 178 43.5 261.5 t126.5 83.5q63 0 110.5 -58.5t76.5 -183.5l61 8l51 23l-24 88q-90 229 -268 229q-152 0 -238 -133q-80 -125 -68 -332l13 -229h-172l-21 -121h201l10 -442l-4 -46q-86 27 -172 27q-111 0 -111 -110zM66 131q0 53 47 53t47 -53q0 -51 -47 -51t-47 51z" />
<glyph unicode="&#xa4;" horiz-adv-x="989" d="M-92 489h137q37 -180 127 -309q154 -219 403 -219q106 0 201 72q106 82 146 225l-82 70q-45 -141 -117 -197q-35 -27 -67.5 -40t-73.5 -13q-92 0 -169 46t-134 140q-59 94 -91 225h633v117h-651q-6 68 -6 139q0 68 6 134h651v116h-633q27 131 91 232q59 96 136 142 t169 46q80 0 139 -49q63 -55 119 -197l84 66q-16 72 -52 127t-88 96q-92 78 -206 78q-244 0 -404 -225q-92 -133 -131 -316h-137v-116h119q-6 -66 -7 -131q0 -37 2.5 -72t6.5 -70h-121v-117z" />
<glyph unicode="&#xa5;" horiz-adv-x="913" d="M-53 1505l313 -598h-199v-116l263 -3l47 -96v-94h-289v-117h299v-491l121 8v475h282v129h-276v90l47 96h252v127h-195l310 590l-150 15l-334 -699l-340 699z" />
<glyph unicode="&#xa6;" horiz-adv-x="1325" d="M147 979q0 -145 39 -278.5t98.5 -249t127 -211t127 -164t98.5 -105.5l39 -37l39 37q39 37 98 105.5t127 164t127 211t98 250t39 277.5q0 170 -53 323.5t-127 282.5q10 4 18.5 7t18.5 7v46q-20 10 -39 10q-16 0 -37 -4q-55 86 -109.5 154.5t-99.5 116.5t-72 74l-28 27 l-39 -37q-39 -36 -98.5 -105t-127 -164t-127 -210.5t-98.5 -250t-39 -277.5zM229 928q0 41 31 57t68 18.5t68.5 -2t33.5 -2.5q-49 59 -40 93t53 46.5t113 5.5t140.5 -28.5t133 -54.5t92.5 -72q10 29 -12.5 61.5t-63.5 65.5t-93.5 67t-97.5 64.5t-76.5 55t-33.5 43.5h37 l-39 22q86 -23 169 -53.5t171 -46.5q-82 43 -169 71.5t-163 81.5l4 23q16 12 34.5 20.5t39.5 3.5l4 7q14 0 46 -5.5t63.5 -11.5t59 -10t36.5 -2q-51 25 -106.5 42t-100.5 54q-8 27 6 43l20 2l-16 10h74t100 4.5t93 13.5t53 30l24 6q23 -35 39 -66q-35 -12 -70.5 -16 t-72.5 -7t-74 -6.5t-74 -13.5q25 -18 55.5 -26.5t61.5 -17.5t57.5 -24.5t42.5 -50.5q-14 -20 -48 -27t-71.5 -6t-75.5 5t-63 4q27 -10 78 -26.5t103.5 -38t92.5 -49.5t44 -58q-10 -8 -19.5 -16.5t-15.5 -18.5l-12 12q-53 6 -103.5 21.5t-103.5 23.5q27 -25 71.5 -58.5 t82.5 -73.5t55.5 -82t-11.5 -85q12 -68 -4 -100.5t-49 -49t-78 -25.5t-88 -27q-6 -47 -3 -72t0 -43.5t-21.5 -38t-63.5 -55.5q80 -20 172 -24.5t174 -8.5l11 -35q-45 -16 -92.5 -13t-95.5 13t-97 20.5t-96 10.5q-18 0 -33 -9.5t-28 -20.5t-27.5 -20.5t-28.5 -9.5 q-20 0 -31.5 9.5t-20 21.5t-16.5 25.5t-22 21.5q-35 18 -77 20.5t-81 2.5v32l12 11v6l17 16q12 -18 22 -23t22.5 -6t27 -2.5t32.5 -9.5q-2 23 -10 41.5t-17.5 37t-15.5 40t-4 49.5l-14 13v28q0 23 8 27q-16 6 -34.5 19.5t-35 30.5t-28 36.5t-11.5 38.5zM276 936 q10 -23 36 -47.5t46 -40.5q23 23 52 35l6 -45l-10 -13q39 -14 69.5 -22t60 -13.5t60.5 -5.5q33 0 76 4q-10 16 -26.5 41t-29.5 35q-41 33 -97 56.5t-109 33.5q-16 2 -33 2q-16 0 -31 5q-6 0 -6 8q-12 0 -31.5 -13.5t-32.5 -19.5zM313 1391l49 10q16 -16 41 -15 q-4 -12 -4 -24v-23q0 -10 -5 -20t-21 -16q-12 4 -18.5 12t-22.5 8q0 27 -2 35t-17 33zM383 778q0 -37 5 -63.5t14.5 -50t23.5 -48t31 -55.5q51 -14 75.5 -15t42 8t35 26.5t54.5 35.5q14 20 22 33t11 24t0 26.5t-13 41.5q-74 -10 -152.5 -2t-148.5 39zM442 1077 q16 -16 27.5 -36.5t30.5 -32.5q49 -35 116.5 -53.5t126.5 -22.5q6 0 19 -4l6 -15q37 0 56.5 7.5t49.5 29.5l7 -10l16 18q-25 25 -88.5 59t-136 58.5t-138 29.5t-92.5 -28zM485 514q2 -2 9.5 -8t11.5 -4q4 0 5 2t5 4q-8 0 -15.5 2t-15.5 4zM664 883q14 -20 27.5 -40t23.5 -42 q41 0 61.5 1t34.5 6t30.5 15.5t49.5 26.5q12 20 22.5 28t10.5 33q-23 -12 -58 -21t-71.5 -13.5t-71.5 -2t-59 8.5z" />
<glyph unicode="&#xa7;" horiz-adv-x="903" d="M55 -70q49 -145 139.5 -217.5t225.5 -70.5q133 0 223 86q94 88 94 229q0 143 -125 246q207 98 207 270q0 115 -48 211t-148 168l-181 131q-182 133 -182 252q0 86 55 141q49 49 109 49q180 0 240 -211l116 39h13q-96 283 -353 283q-133 0 -213 -84q-88 -88 -88 -231 q0 -145 121 -248q-199 -100 -199 -271q0 -115 47.5 -209t145.5 -165l182 -131q184 -133 185 -254q0 -82 -64 -140q-53 -51 -121 -51q-201 0 -260 217l-113 -39h-8zM176 715q0 68 39 127q39 57 109 69q20 -10 46.5 -28.5t57.5 -42.5q18 -16 46 -39t63 -53q163 -142 163 -285 q0 -68 -38 -125q-43 -59 -105 -70q-55 27 -113.5 75t-103.5 87q-164 143 -164 285z" />
<glyph unicode="&#xa8;" horiz-adv-x="604" d="M8 1389q0 -86 76 -86t76 86t-76 86t-76 -86zM367 1389q0 -86 75 -86q74 0 74 86t-74 86q-76 0 -75 -86z" />
<glyph unicode="&#xa9;" horiz-adv-x="1431" d="M-20 668q0 -293 210 -500q205 -205 502 -205q295 0 502 205q211 205 211 500q0 293 -211 499q-209 209 -504 209q-291 0 -500 -209q-211 -207 -210 -499zM88 670q0 252 176 428q178 178 430 178q250 0 428 -178q178 -176 178 -428q0 -254 -178 -428q-178 -178 -430 -179 q-254 0 -428 179q-176 176 -176 428zM309 678q0 -102 25.5 -185t81.5 -147q106 -125 276 -125q117 0 207 74q95 74 115 203l-92 4q-14 -78 -74 -131q-61 -55 -150 -56q-129 0 -200 103q-33 47 -50.5 112.5t-17.5 147.5q0 166 64 264q68 98 200 98q197 0 228 -184l92 8 q-49 272 -320 273q-176 0 -280 -129q-104 -127 -105 -330z" />
<glyph unicode="&#xaa;" horiz-adv-x="505" d="M27 1061q0 -94 55 -152q61 -63 147 -63q94 0 166 92l2 -80l29 4h59l-8 66v424q0 213 -198 213q-57 0 -103.5 -24.5t-81.5 -63.5l21 -66q18 18 35.5 30.5t39.5 22.5q49 25 89 25q113 0 112 -129v-70q-20 4 -35.5 6t-32 4.5t-32 1t-31.5 -1.5q-233 -29 -233 -239zM113 1059 q0 141 149 168q23 2 41 2q20 0 41 -12q33 -16 43 -56v-104q-8 -25 -21.5 -47.5t-35.5 -42.5q-47 -43 -103 -43q-115 0 -114 135z" />
<glyph unicode="&#xab;" horiz-adv-x="747" d="M41 553l233 -283l91 27l-193 256l201 254l-88 27zM342 553l236 -283l90 27l-195 256l201 254l-88 27z" />
<glyph unicode="&#xac;" horiz-adv-x="1325" d="M147 979q0 -145 39 -278.5t98.5 -249t127 -211t127 -164t98.5 -105.5l39 -37l39 37q39 37 98 105.5t127 164t127 211t98 250t39 277.5q0 170 -53 323.5t-127 282.5q10 4 18.5 7t18.5 7v46q-20 10 -39 10q-16 0 -37 -4q-55 86 -109.5 154.5t-99.5 116.5t-72 74l-28 27 l-39 -37q-39 -36 -98.5 -105t-127 -164t-127 -210.5t-98.5 -250t-39 -277.5zM229 928q0 41 31 57t68 18.5t68.5 -2t33.5 -2.5q-49 59 -40 93t53 46.5t113 5.5t140.5 -28.5t133 -54.5t92.5 -72q10 29 -12.5 61.5t-63.5 65.5t-93.5 67t-97.5 64.5t-76.5 55t-33.5 43.5h37 l-39 22q86 -23 169 -53.5t171 -46.5q-82 43 -169 71.5t-163 81.5l4 23q16 12 34.5 20.5t39.5 3.5l4 7q14 0 46 -5.5t63.5 -11.5t59 -10t36.5 -2q-51 25 -106.5 42t-100.5 54q-8 27 6 43l20 2l-16 10h74t100 4.5t93 13.5t53 30l24 6q23 -35 39 -66q-35 -12 -70.5 -16 t-72.5 -7t-74 -6.5t-74 -13.5q25 -18 55.5 -26.5t61.5 -17.5t57.5 -24.5t42.5 -50.5q-14 -20 -48 -27t-71.5 -6t-75.5 5t-63 4q27 -10 78 -26.5t103.5 -38t92.5 -49.5t44 -58q-10 -8 -19.5 -16.5t-15.5 -18.5l-12 12q-53 6 -103.5 21.5t-103.5 23.5q27 -25 71.5 -58.5 t82.5 -73.5t55.5 -82t-11.5 -85q12 -68 -4 -100.5t-49 -49t-78 -25.5t-88 -27q-6 -47 -3 -72t0 -43.5t-21.5 -38t-63.5 -55.5q80 -20 172 -24.5t174 -8.5l11 -35q-45 -16 -92.5 -13t-95.5 13t-97 20.5t-96 10.5q-18 0 -33 -9.5t-28 -20.5t-27.5 -20.5t-28.5 -9.5 q-20 0 -31.5 9.5t-20 21.5t-16.5 25.5t-22 21.5q-35 18 -77 20.5t-81 2.5v32l12 11v6l17 16q12 -18 22 -23t22.5 -6t27 -2.5t32.5 -9.5q-2 23 -10 41.5t-17.5 37t-15.5 40t-4 49.5l-14 13v28q0 23 8 27q-16 6 -34.5 19.5t-35 30.5t-28 36.5t-11.5 38.5zM276 936 q10 -23 36 -47.5t46 -40.5q23 23 52 35l6 -45l-10 -13q39 -14 69.5 -22t60 -13.5t60.5 -5.5q33 0 76 4q-10 16 -26.5 41t-29.5 35q-41 33 -97 56.5t-109 33.5q-16 2 -33 2q-16 0 -31 5q-6 0 -6 8q-12 0 -31.5 -13.5t-32.5 -19.5zM313 1391l49 10q16 -16 41 -15 q-4 -12 -4 -24v-23q0 -10 -5 -20t-21 -16q-12 4 -18.5 12t-22.5 8q0 27 -2 35t-17 33zM383 778q0 -37 5 -63.5t14.5 -50t23.5 -48t31 -55.5q51 -14 75.5 -15t42 8t35 26.5t54.5 35.5q14 20 22 33t11 24t0 26.5t-13 41.5q-74 -10 -152.5 -2t-148.5 39zM442 1077 q16 -16 27.5 -36.5t30.5 -32.5q49 -35 116.5 -53.5t126.5 -22.5q6 0 19 -4l6 -15q37 0 56.5 7.5t49.5 29.5l7 -10l16 18q-25 25 -88.5 59t-136 58.5t-138 29.5t-92.5 -28zM485 514q2 -2 9.5 -8t11.5 -4q4 0 5 2t5 4q-8 0 -15.5 2t-15.5 4zM664 883q14 -20 27.5 -40t23.5 -42 q41 0 61.5 1t34.5 6t30.5 15.5t49.5 26.5q12 20 22.5 28t10.5 33q-23 -12 -58 -21t-71.5 -13.5t-71.5 -2t-59 8.5z" />
<glyph unicode="&#xad;" horiz-adv-x="559" d="M18 559h404v105h-404v-105z" />
<glyph unicode="&#xae;" horiz-adv-x="1431" d="M-23 668q0 -293 211 -500q205 -205 502 -205q295 0 502 205q211 205 211 500q0 293 -211 499q-209 209 -504 209q-291 0 -500 -209q-211 -207 -211 -499zM86 670q0 252 176 428q178 178 430 178q250 0 428 -178t178 -428q0 -252 -180 -428q-178 -178 -428 -179 q-254 0 -428 179q-176 176 -176 428zM418 274l4 -24v-6h90v10l4 18v342h182l195 -370l108 -4l-43 69l-157 316q201 43 200 231q0 135 -79.5 192.5t-223.5 57.5h-274v-19l-6 -26v-787zM516 709v307h191q184 0 184 -156q0 -152 -201 -151h-174z" />
<glyph unicode="&#xaf;" horiz-adv-x="620" d="M10 1348h580v108h-580v-108z" />
<glyph unicode="&#xb0;" horiz-adv-x="702" d="M72 1251q0 -104 75 -184q80 -80 193 -80q111 0 188 80q80 80 80 184q0 106 -80 183q-76 76 -188 75q-113 0 -188 -75q-80 -76 -80 -183zM164 1243q0 174 176 174q172 0 172 -174q0 -168 -172 -168q-176 0 -176 168z" />
<glyph unicode="&#xb1;" horiz-adv-x="1386" d="M4 758q0 -322 197 -549q203 -233 508 -234q184 0 360 121q143 98 211 234h-88q-29 -57 -76 -102.5t-112 -84.5q-145 -86 -306 -86q-236 0 -413 197q-186 205 -187 494q0 291 181 495q90 102 194.5 153.5t231.5 51.5q225 0 385 -166q154 -164 153 -385q0 -98 -26.5 -188.5 t-77.5 -171.5q-20 -33 -49 -59.5t-59 -45t-58.5 -30t-50.5 -15.5q16 33 30.5 71t14.5 83q0 102 -70 171.5t-199 110.5q-172 57 -172 193q0 170 162 170q59 0 110.5 -37t80.5 -82l108 66q-51 76 -139 112.5t-174 36.5q-102 0 -174 -78q-76 -78 -76 -198q0 -115 70 -183 q31 -29 76.5 -51t109.5 -45q90 -31 132 -83t42 -124q0 -176 -172 -176q-78 0 -128 40t-85 99l-86 -59q111 -178 293 -178q119 0 186 65l2 -6v-2q82 4 173 46t155 128q137 180 137 418q0 260 -176 442q-184 190 -455 191q-287 0 -491 -234q-203 -231 -203 -536z" />
<glyph unicode="&#xb4;" horiz-adv-x="454" d="M162 1260h100l187 264l-156 -2z" />
<glyph unicode="&#xb5;" horiz-adv-x="1384" d="M-8 758q0 -326 198 -555q205 -238 517 -238q190 0 366 121q158 109 223 254l-114 -2q-59 -111 -187 -186q-143 -84 -299 -84q-115 0 -217 47t-190 145q-180 203 -180 488q0 287 176 487q174 201 417 201q219 0 373 -160q150 -156 150 -375q0 -197 -107 -352 q-51 -76 -102 -112t-101 -36q-4 0 -6 1t-4 1l-174 299l234 336l-109 21l-215 -324h-29v602l-108 -18v-1088l104 15v399h41l223 -375l33 9l78 30q72 29 133.5 78t114.5 133q110 172 110 377q0 262 -180 449q-190 195 -465 194q-291 0 -499 -240q-205 -233 -205 -542z" />
<glyph unicode="&#xb6;" horiz-adv-x="991" d="M49 1122q0 -381 430 -387v-1102h117v1778h147v-1778h111v1872h-387q-418 0 -418 -383z" />
<glyph unicode="&#xb7;" horiz-adv-x="464" d="M150 555q0 -109 98 -109t98 109t-98 109t-98 -109z" />
<glyph unicode="&#xb8;" horiz-adv-x="419" d="M76 -348l51 -37q10 -4 16.5 -6t14.5 -6q12 -4 23.5 -6.5t21.5 -2.5q23 0 46 18.5t52 53.5q53 68 53 131q0 41 -14 63.5t-43 22.5l-31 -8l39 59h-94l-64 -94l5 -10l41 6q37 0 36 -37q0 -51 -30 -106q-29 -53 -49 -53q-16 0 -31 6q-6 2 -14.5 3t-28.5 3z" />
<glyph unicode="&#xba;" horiz-adv-x="585" d="M18 1204q0 -158 76 -258t201 -100q129 0 205 100q78 102 78 258q0 158 -76 258.5t-207 100.5q-125 0 -201 -100.5t-76 -258.5zM102 1204q0 289 193 289q197 0 197 -289q0 -147 -49.5 -218t-147.5 -71q-96 0 -144.5 71t-48.5 218z" />
<glyph unicode="&#xbb;" horiz-adv-x="749" d="M35 807l203 -256l-195 -252l88 -31l240 285l-246 283zM336 807l203 -256l-193 -252l88 -31l238 285l-244 283z" />
<glyph unicode="&#xbf;" horiz-adv-x="663" d="M14 -57q0 -139 76 -240q80 -109 221 -109q104 0 193 84q72 66 121 187l-107 55q-12 -29 -30.5 -63.5t-43 -65.5t-57.5 -52.5t-74 -21.5q-74 0 -123 68q-45 66 -45 170q0 47 5.5 84t15.5 65q12 37 35.5 75t58.5 73q133 123 133 283v159l-100 -10v-90q0 -96 -17 -135 q-18 -45 -104 -137q-158 -176 -158 -379zM236 1053q0 -109 102 -109q98 0 98 111t-100 110q-100 0 -100 -112z" />
<glyph unicode="&#xc0;" horiz-adv-x="1019" d="M-74 -6l125 -14l189 544h501l195 -544l123 14l-524 1526h-91zM276 1905l197 -271h100l-143 271h-154zM303 662l182 651l193 -651h-375z" />
<glyph unicode="&#xc1;" horiz-adv-x="1019" d="M-74 -6l125 -14l189 544h501l195 -544l123 14l-524 1526h-91zM291 1638h90l188 265l-145 -2zM303 662l182 651l193 -651h-375z" />
<glyph unicode="&#xc2;" horiz-adv-x="1019" d="M-74 -6l125 -14l189 544h501l195 -544l123 14l-524 1526h-91zM254 1634h129l109 183l110 -183h137l-186 273h-119zM303 662l182 651l193 -651h-375z" />
<glyph unicode="&#xc3;" horiz-adv-x="1019" d="M-74 -6l125 -14l189 544h501l195 -544l123 14l-524 1526h-91zM205 1718l61 -26q33 80 92 80q39 0 117 -39q86 -41 135 -41q127 -1 178 161l-67 27q-16 -43 -39 -61.5t-51 -18.5q-18 0 -48 8.5t-71 29t-72.5 31.5t-60.5 11q-125 0 -174 -162zM303 662l182 651l193 -651 h-375z" />
<glyph unicode="&#xc4;" horiz-adv-x="1019" d="M-74 -6l125 -14l189 544h501l195 -544l123 14l-524 1526h-91zM207 1774q0 -88 76 -88q75 0 75 88q0 86 -75 86q-76 0 -76 -86zM303 662l182 651l193 -651h-375zM563 1774q0 -88 74 -88q78 0 78 88q0 86 -78 86q-74 0 -74 -86z" />
<glyph unicode="&#xc5;" horiz-adv-x="1019" d="M-74 -6l125 -14l189 544h501l195 -544l123 14l-524 1526h-91zM303 662l182 651l193 -651h-375zM315 1796q0 -70 51.5 -121t125.5 -51t122 51q54 49 54 121q0 70 -54 123q-51 51 -122 51q-70 0 -125 -51q-51 -55 -52 -123zM395 1796q0 98 99 98q98 0 98 -98 q0 -100 -98 -100t-99 100z" />
<glyph unicode="&#xc6;" horiz-adv-x="1619" d="M-82 -6h168l305 577h420v-577h752l8 115h-629v596h428v126h-426v564h576l-9 110h-786zM477 719l314 622v-622h-314z" />
<glyph unicode="&#xc7;" horiz-adv-x="985" d="M16 748q0 -352 152 -568q154 -219 407 -219q113 0 193 62q92 69 135 221l-65 90q-45 -143 -121 -205q-59 -51 -137 -51q-190 0 -304 184q-115 184 -114 483q0 299 114 484q117 186 306 186q80 0 139 -49q66 -55 119 -197l63 84q-33 141 -127 217q-80 66 -198 66 q-244 0 -404 -225q-158 -225 -158 -563zM412 -633l55 246q8 -2 14 -4t15 -6q10 -4 22 -6.5t23 -2.5q41 0 102 50q59 47 59 90q0 55 -63 55l-41 -8l37 76h-98l-23 -27l-10 -82l14 -2q59 0 60 -96q0 -121 -41 -254q-20 -68 -37 -97.5t-27 -29.5q-16 0 -37 45q-16 43 -24 53z " />
<glyph unicode="&#xc8;" horiz-adv-x="919" d="M78 -6h778l6 115h-653v602h450v120h-450v564h606l-8 110h-729v-1511zM246 1905l196 -271h97l-140 271h-153z" />
<glyph unicode="&#xc9;" horiz-adv-x="919" d="M78 -6h778l6 115h-653v602h450v120h-450v564h606l-8 110h-729v-1511zM254 1634h96l193 273l-150 -4z" />
<glyph unicode="&#xca;" horiz-adv-x="919" d="M78 -6h778l6 115h-653v602h450v120h-450v564h606l-8 110h-729v-1511zM221 1634h129l107 183l110 -183h138l-187 273h-117z" />
<glyph unicode="&#xcb;" horiz-adv-x="919" d="M78 -6h778l6 115h-653v602h450v120h-450v564h606l-8 110h-729v-1511zM174 1774q0 -88 76 -88q78 0 78 88q0 86 -78 86q-76 0 -76 -86zM532 1774q0 -88 76 -88q74 0 74 88q0 86 -74 86q-76 0 -76 -86z" />
<glyph unicode="&#xcc;" horiz-adv-x="346" d="M-41 1907l197 -275h100l-145 275h-152zM135 -10l121 10v1520l-121 -11v-1519z" />
<glyph unicode="&#xcd;" horiz-adv-x="344" d="M-29 1634h95l192 273l-149 -4zM137 -10l119 10v1520l-119 -11v-1519z" />
<glyph unicode="&#xce;" horiz-adv-x="331" d="M-72 1636h127l111 185l113 -189h127l-185 271h-117zM125 -10l119 10v1520l-119 -11v-1519z" />
<glyph unicode="&#xcf;" horiz-adv-x="360" d="M-104 1774q0 -88 75 -88q72 0 72 88q0 86 -72 86q-76 0 -75 -86zM141 -10l133 8v1522l-133 -11v-1519zM238 1774q0 -88 81 -88q82 0 82 88q0 86 -82 86t-81 -86z" />
<glyph unicode="&#xd1;" horiz-adv-x="1136" d="M76 -10l137 8v1253l715 -1259l4 -17h86v1545l-141 -11v-1183l-682 1196h-119v-1532zM260 1718l64 -26q33 80 92 80q41 0 116 -39q43 -20 78 -31.5t64 -11.5q123 -1 178 163l-74 29q-16 -45 -38.5 -63.5t-51.5 -18.5q-18 0 -47 8.5t-70 29t-74.5 31.5t-60.5 11 q-123 0 -176 -162z" />
<glyph unicode="&#xd2;" d="M4 748q0 -340 162 -564q166 -223 420 -223q252 0 418 223q163 226 163 564q0 340 -163 563q-166 225 -418 225q-256 0 -420 -225q-162 -227 -162 -563zM145 745q0 295 123 483.5t318 188.5q197 0 319 -188q123 -185 123 -484q0 -295 -123 -481q-119 -186 -319 -186 q-199 0 -318 186q-123 186 -123 481zM369 1905l194 -271h99l-142 271h-151z" />
<glyph unicode="&#xd3;" d="M4 748q0 -340 162 -564q166 -223 420 -223q252 0 418 223q163 226 163 564q0 340 -163 563q-166 225 -418 225q-256 0 -420 -225q-162 -227 -162 -563zM145 745q0 295 123 483.5t318 188.5q197 0 319 -188q123 -185 123 -484q0 -295 -123 -481q-119 -186 -319 -186 q-199 0 -318 186q-123 186 -123 481zM379 1634h94l195 273l-152 -4z" />
<glyph unicode="&#xd4;" d="M4 748q0 -340 162 -564q166 -223 420 -223q252 0 418 223q163 226 163 564q0 340 -163 563q-166 225 -418 225q-256 0 -420 -225q-162 -227 -162 -563zM145 745q0 295 123 483.5t318 188.5q197 0 319 -188q123 -185 123 -484q0 -295 -123 -481q-119 -186 -319 -186 q-199 0 -318 186q-123 186 -123 481zM344 1634h129l109 183l110 -183h135l-186 273h-117z" />
<glyph unicode="&#xd5;" d="M4 748q0 -340 162 -564q166 -223 420 -223q252 0 418 223q163 226 163 564q0 340 -163 563q-166 225 -418 225q-256 0 -420 -225q-162 -227 -162 -563zM145 745q0 295 123 483.5t318 188.5q197 0 319 -188q123 -185 123 -484q0 -295 -123 -481q-119 -186 -319 -186 q-199 0 -318 186q-123 186 -123 481zM295 1718l65 -26q33 80 91 80q41 0 118 -39q43 -20 77 -31.5t61 -11.5q125 -1 178 163l-72 29q-16 -45 -38.5 -63.5t-51.5 -18.5q-18 0 -48 8.5t-69 28.5q-41 20 -74.5 31.5t-60.5 11.5q-123 0 -176 -162z" />
<glyph unicode="&#xd6;" d="M4 748q0 -340 162 -564q166 -223 420 -223q252 0 418 223q163 226 163 564q0 340 -163 563q-166 225 -418 225q-256 0 -420 -225q-162 -227 -162 -563zM145 745q0 295 123 483.5t318 188.5q197 0 319 -188q123 -185 123 -484q0 -295 -123 -481q-119 -186 -319 -186 q-199 0 -318 186q-123 186 -123 481zM297 1774q0 -88 78 -88q76 0 76 88q0 86 -76 86q-78 0 -78 -86zM655 1774q0 -88 74 -88q78 0 78 88q0 86 -78 86q-74 0 -74 -86z" />
<glyph unicode="&#xd7;" horiz-adv-x="1386" d="M4 758q0 -322 197 -549q203 -233 508 -234q184 0 360 121q143 98 211 234h-88q-29 -57 -76 -102.5t-112 -84.5q-145 -86 -306 -86q-236 0 -413 197q-186 205 -187 494q0 291 181 495q90 102 194.5 153.5t231.5 51.5q225 0 385 -166q154 -164 153 -385q0 -98 -26.5 -188.5 t-77.5 -171.5q-96 -154 -201 -154q-23 0 -47 14q2 -8 2 -16t2 -19q2 0 3 -11t3 -25q4 -4 5 -10.5t3 -10.5v-2q158 6 283 174q137 180 137 418q0 260 -176 442q-184 190 -455 191q-287 0 -491 -234q-203 -231 -203 -536z" />
<glyph unicode="&#xd8;" d="M6 748q0 -330 162 -558l-143 -227l90 -57l116 188q133 -133 340 -133q260 0 426 223q168 223 168 561q0 168 -41 307.5t-118 252.5l112 200l-88 58l-98 -158q-137 133 -332 133q-262 0 -428 -225q-166 -221 -166 -565zM150 741q-2 297 120.5 485.5t317.5 188.5 q166 0 264 -123l-612 -981q-90 168 -90 430zM313 211l615 977q94 -170 94 -438q0 -297 -123 -483.5t-317 -186.5q-164 0 -269 131z" />
<glyph unicode="&#xd9;" horiz-adv-x="1056" d="M59 481q0 -520 447 -520q440 1 440 531v1028l-131 -11v-974q0 -229 -80 -339t-235 -110q-307 0 -307 432v1002l-134 -11v-1028zM293 1905l194 -271h99l-144 271h-149z" />
<glyph unicode="&#xda;" horiz-adv-x="1056" d="M59 473q0 -512 447 -512q440 0 440 522v1037l-131 -11v-981q0 -225 -80 -333.5t-235 -108.5q-307 0 -307 426v1008l-134 -11v-1036zM299 1634h94l195 273l-150 -4z" />
<glyph unicode="&#xdb;" horiz-adv-x="1056" d="M59 473q0 -512 447 -512q440 0 440 522v1037l-131 -11v-981q0 -225 -80 -333.5t-235 -108.5q-307 0 -307 426v1008l-134 -11v-1036zM268 1634h127l111 183l110 -183h136l-187 273h-116z" />
<glyph unicode="&#xdc;" horiz-adv-x="1056" d="M59 481q0 -520 447 -520q440 1 440 531v1028l-131 -11v-974q0 -229 -80 -339t-235 -110q-307 0 -307 432v1002l-134 -11v-1028zM219 1774q0 -88 76 -88t76 88q0 86 -76 86t-76 -86zM575 1774q0 -88 78 -88q74 0 74 88q0 86 -74 86q-78 0 -78 -86z" />
<glyph unicode="&#xdf;" horiz-adv-x="937" d="M-6 793h102v-1104l119 8v1419q0 188 57 264q49 63 146 64q203 0 203 -277q-2 -254 -252 -256l-7 -2v-108h25q338 0 338 -355q0 -145 -69.5 -255.5t-176.5 -110.5l6 -113q86 0 153 37t120 111q100 139 100 340q0 334 -229 428q72 63 102.5 132.5t30.5 162.5q0 170 -90 274 q-94 106 -242 107q-152 0 -246 -103q-96 -109 -96 -309v-295h-94v-59z" />
<glyph unicode="&#xe0;" horiz-adv-x="808" d="M-61 332q0 -78 19 -143.5t62 -118.5q84 -104 228 -105q145 0 256 164l8 -139l39 4h104q-12 14 -16 23.5t-8 19.5q0 8 -1 24.5t-1 42.5v727q0 356 -307 357q-90 0 -163 -45t-128 -105l28 -102q29 29 56.5 50.5t60.5 39.5q76 47 141 47q182 0 183 -223v-125 q-29 10 -55.5 15t-53.5 8q-10 0 -22.5 2t-28.5 0l-43 -2q-164 -25 -262 -136q-96 -111 -96 -280zM57 332q0 256 244 299q25 8 53 8q41 0 76 -23q49 -31 68 -102v-182q-18 -90 -88 -166q-78 -80 -164 -80t-137 74q-51 66 -52 172zM66 1524l194 -267h102l-139 265z" />
<glyph unicode="&#xe1;" horiz-adv-x="808" d="M-61 332q0 -78 19 -143.5t62 -118.5q84 -104 228 -105q145 0 256 164l8 -139l39 4h104q-12 14 -16 23.5t-8 19.5q0 8 -1 24.5t-1 42.5v727q0 356 -314 357q-94 0 -168.5 -47t-128.5 -111l29 -102q29 29 56.5 51t62.5 43q86 49 147 49q186 0 187 -221v-125 q-29 10 -55.5 15t-53.5 8q-10 0 -22.5 2t-28.5 0l-43 -2q-164 -25 -262 -136q-96 -111 -96 -280zM57 332q0 256 244 299q25 8 53 8q41 0 76 -23q49 -31 68 -102v-182q-18 -90 -88 -166q-78 -80 -164 -80t-137 74q-51 66 -52 172zM92 1257h103l192 267l-156 -2z" />
<glyph unicode="&#xe2;" horiz-adv-x="808" d="M-61 332q0 -78 19 -143.5t62 -118.5q84 -104 228 -105q145 0 256 164l8 -139l39 4h104q-12 14 -16 23.5t-8 19.5q0 8 -1 24.5t-1 42.5v727q0 356 -314 357q-94 0 -168.5 -47t-128.5 -111l29 -102q29 29 56.5 51t62.5 43q86 49 147 49q186 0 187 -221v-125 q-29 10 -55.5 15t-53.5 8q-10 0 -22.5 2t-28.5 0l-43 -2q-164 -25 -262 -136q-96 -111 -96 -280zM57 332q0 256 244 299q25 8 53 8q41 0 76 -23q49 -31 68 -102v-182q-18 -90 -88 -166q-78 -80 -164 -80t-137 74q-51 66 -52 172zM63 1260h136l94 159l98 -155h135l-180 260 l-106 -2z" />
<glyph unicode="&#xe3;" horiz-adv-x="808" d="M-61 332q0 -78 19 -143.5t62 -118.5q84 -104 228 -105q145 0 256 164l8 -139l39 4h104q-12 14 -16 23.5t-8 19.5q0 8 -1 24.5t-1 42.5v727q0 356 -314 357q-94 0 -168.5 -47t-128.5 -111l29 -102q29 29 56.5 51t62.5 43q86 49 147 49q186 0 187 -221v-125 q-29 10 -55.5 15t-53.5 8q-10 0 -22.5 2t-28.5 0l-43 -2q-164 -25 -262 -136q-96 -111 -96 -280zM0 1319l72 -21q33 80 88 80q35 0 119 -39q80 -39 135 -39q121 0 176 158l-70 27q-16 -41 -39.5 -57.5t-52.5 -16.5q-18 0 -48 7t-69 28q-41 20 -74.5 33.5t-60.5 13.5 q-123 0 -176 -174zM57 332q0 256 244 299q25 8 53 8q41 0 76 -23q49 -31 68 -102v-182q-18 -90 -88 -166q-78 -80 -164 -80t-137 74q-51 66 -52 172z" />
<glyph unicode="&#xe4;" horiz-adv-x="808" d="M-61 332q0 -78 19 -143.5t62 -118.5q84 -104 228 -105q145 0 256 164l8 -139l39 4h104q-12 14 -16 23.5t-8 19.5q0 8 -1 24.5t-1 42.5v727q0 356 -314 357q-94 0 -168.5 -47t-128.5 -111l29 -102q29 29 56.5 51t62.5 43q86 49 147 49q186 0 187 -221v-125 q-29 10 -55.5 15t-53.5 8q-10 0 -22.5 2t-28.5 0l-43 -2q-164 -25 -262 -136q-96 -111 -96 -280zM23 1393q0 -84 75 -84q78 0 78 84t-78 84q-76 0 -75 -84zM57 332q0 256 244 299q25 8 53 8q41 0 76 -23q49 -31 68 -102v-182q-18 -90 -88 -166q-78 -80 -164 -80t-137 74 q-51 66 -52 172zM379 1393q0 -84 76 -84q75 0 75 84t-75 84q-76 0 -76 -84z" />
<glyph unicode="&#xe5;" horiz-adv-x="808" d="M-61 332q0 -78 19 -143.5t62 -118.5q84 -104 228 -105q145 0 256 164l8 -139l39 4h104q-12 14 -16 23.5t-8 19.5q0 8 -1 24.5t-1 42.5v727q0 356 -314 357q-94 0 -168.5 -47t-128.5 -111l29 -102q29 29 56.5 51t62.5 43q86 49 147 49q186 0 187 -221v-125 q-29 10 -55.5 15t-53.5 8q-10 0 -22.5 2t-28.5 0l-43 -2q-164 -25 -262 -136q-96 -111 -96 -280zM57 332q0 256 244 299q25 8 53 8q41 0 76 -23q49 -31 68 -102v-182q-18 -90 -88 -166q-78 -80 -164 -80t-137 74q-51 66 -52 172zM117 1407q0 -74 51 -123q51 -51 127 -51 q72 0 123 51q53 49 53 123q0 72 -53 121q-55 55 -123 55q-76 0 -127 -55q-51 -51 -51 -121zM195 1405q0 102 100 102q98 0 98 -102q0 -100 -98 -100q-100 0 -100 100z" />
<glyph unicode="&#xe6;" horiz-adv-x="1572" d="M-4 569q0 -262 119 -436q119 -168 309 -168q168 0 295 178v-159l108 10v137q53 -74 131 -120t181 -46q219 0 336 225l-56 103q-25 -47 -54.5 -82t-64.5 -64q-82 -68 -170 -67q-80 0 -132 40t-83.5 100.5t-48 128t-22.5 120.5l641 248l-4 53q-8 90 -31 164t-70 133 q-94 121 -241 121q-109 0 -197 -55q-70 -41 -115 -105v139l-102 -6v-176q-20 35 -52 71t-70 64.5t-83 47t-92 18.5q-190 0 -313 -176q-119 -174 -119 -441zM129 561q0 227 80 367q82 143 215 143q106 0 186 -100q80 -96 101 -238v-295q-16 -139 -99 -245q-86 -113 -190 -113 q-131 0 -215 135q-78 131 -78 346zM840 588q4 109 23.5 194.5t58.5 151.5q82 137 223 137q70 0 117 -78q47 -73 59 -190z" />
<glyph unicode="&#xe7;" horiz-adv-x="854" d="M31 573q0 -276 112 -442q90 -129 224 -156l-9 -16l2 -29h15q61 0 61 -69q0 -92 -30 -191q-16 -49 -33 -70l-17 -20q0 -2 1 -11t12.5 -19.5t40.5 -10.5q25 0 47 29t47 82q55 106 55 196q0 106 -45 123q176 27 266 234l-90 67q-27 -78 -86 -131q-68 -61 -151 -61 q-137 0 -217 135q-76 133 -76 362q0 500 313 500q70 0 135 -61q55 -51 72 -115l98 68q-113 221 -313 221q-199 0 -320 -170q-115 -170 -114 -445z" />
<glyph unicode="&#xe8;" horiz-adv-x="851" d="M25 578q0 -281 114 -447q117 -166 322 -166q215 0 338 244l-51 100q-29 -51 -59 -88t-66 -67q-90 -74 -172 -74t-135.5 40t-86 98t-48 127t-21.5 124l645 248q-12 90 -34.5 181t-82.5 169q-94 121 -242 121q-195 0 -309 -170q-113 -168 -112 -440zM158 588q4 221 75 348 q80 137 224 137q72 0 117 -67.5t59 -208.5zM213 1524l186 -256h103l-135 254z" />
<glyph unicode="&#xe9;" horiz-adv-x="851" d="M25 578q0 -281 114 -447q117 -166 322 -166q215 0 338 244l-51 100q-29 -51 -59 -88t-66 -67q-90 -74 -172 -74t-135.5 40t-86 98t-48 127t-21.5 124l645 248q-12 90 -34.5 181t-82.5 169q-94 121 -242 121q-195 0 -309 -170q-113 -168 -112 -440zM158 588q4 221 75 348 q80 137 224 137q72 0 117 -67.5t59 -208.5zM231 1257h101l194 267l-157 -2z" />
<glyph unicode="&#xea;" horiz-adv-x="851" d="M25 578q0 -281 114 -447q117 -166 322 -166q215 0 338 244l-51 100q-29 -51 -59 -88t-66 -67q-90 -74 -172 -74t-135.5 40t-86 98t-48 127t-21.5 124l645 248q-12 90 -34.5 181t-82.5 169q-94 121 -242 121q-195 0 -309 -170q-113 -168 -112 -440zM158 588q4 221 75 348 q80 137 224 137q72 0 117 -67.5t59 -208.5zM205 1260h129l98 157l98 -160h140l-187 267h-104z" />
<glyph unicode="&#xeb;" horiz-adv-x="851" d="M25 578q0 -281 114 -447q117 -166 322 -166q215 0 338 244l-51 100q-29 -51 -59 -88t-66 -67q-90 -74 -172 -74t-135.5 40t-86 98t-48 127t-21.5 124l645 248q-12 90 -34.5 181t-82.5 169q-94 121 -242 121q-195 0 -309 -170q-113 -168 -112 -440zM104 1393q0 -84 76 -84 t76 84t-76 84t-76 -84zM158 588q4 221 75 348q80 137 224 137q72 0 117 -67.5t59 -208.5zM461 1393q0 -84 74 -84q77 0 77 84t-77 84q-74 0 -74 -84z" />
<glyph unicode="&#xec;" horiz-adv-x="376" d="M-29 1524l187 -256h100l-135 254zM125 -14l129 18v1163l-37 -2l-92 -20v-1159z" />
<glyph unicode="&#xed;" horiz-adv-x="380" d="M-23 1257h103l194 267l-157 -2zM113 -14l131 18v1163l-41 -2l-90 -20v-1159z" />
<glyph unicode="&#xee;" horiz-adv-x="358" d="M-61 1260h131l96 157l98 -160h142l-189 267h-102zM102 -14l129 18v1163l-38 -2l-91 -20v-1159z" />
<glyph unicode="&#xef;" horiz-adv-x="399" d="M-96 1393q0 -84 73 -84q76 0 76 84t-76 84q-74 0 -73 -84zM131 -14l129 18v1165l-39 -4l-90 -22v-1157zM244 1393q0 -84 84 -84q82 0 82 84t-82 84q-84 0 -84 -84z" />
<glyph unicode="&#xf1;" horiz-adv-x="841" d="M61 -14l123 18v815q41 106 107 178q76 82 160 82q78 0 117.5 -59t39.5 -186v-848l129 18v766q0 418 -284 418q-145 0 -265 -160v139l-127 -14v-1167zM127 1319l72 -21q29 80 90 80q33 0 114 -39q84 -39 138 -39q123 0 176 158l-70 27q-18 -41 -40.5 -57.5t-51.5 -16.5 q-41 0 -117 35q-84 47 -135 47q-127 0 -176 -174z" />
<glyph unicode="&#xf2;" horiz-adv-x="927" d="M18 578q0 -276 115 -443q117 -170 311 -170q193 0 314 170q116 169 116 443q0 268 -114 438q-117 172 -316 172q-195 0 -311 -172q-115 -170 -115 -438zM147 578q0 219 80 358q84 139 217 139q135 0 220 -139q81 -141 81 -358q0 -227 -81 -365q-84 -135 -220 -135 q-137 0 -217 135q-80 137 -80 365zM221 1524l197 -267h100l-139 265z" />
<glyph unicode="&#xf3;" horiz-adv-x="927" d="M18 578q0 -276 115 -443q117 -170 311 -170q193 0 314 170q116 169 116 443q0 268 -114 438q-117 172 -316 172q-195 0 -311 -172q-115 -170 -115 -438zM147 578q0 219 80 358q84 139 217 139q135 0 220 -139q81 -141 81 -358q0 -227 -81 -365q-84 -135 -220 -135 q-137 0 -217 135q-80 137 -80 365zM246 1257h102l191 267l-156 -2z" />
<glyph unicode="&#xf4;" horiz-adv-x="927" d="M18 578q0 -276 115 -443q117 -170 311 -170q193 0 314 170q116 169 116 443q0 268 -114 438q-117 172 -316 172q-195 0 -311 -172q-115 -170 -115 -438zM147 578q0 219 80 358q84 139 217 139q135 0 220 -139q81 -141 81 -358q0 -227 -81 -365q-84 -135 -220 -135 q-137 0 -217 135q-80 137 -80 365zM217 1260h135l94 159l99 -155h135l-180 260l-105 -2z" />
<glyph unicode="&#xf5;" horiz-adv-x="927" d="M18 578q0 -276 115 -443q117 -170 311 -170q193 0 314 170q116 169 116 443q0 268 -114 438q-117 172 -316 172q-195 0 -311 -172q-115 -170 -115 -438zM147 578q0 219 80 358q84 139 217 139q135 0 220 -139q81 -141 81 -358q0 -227 -81 -365q-84 -135 -220 -135 q-137 0 -217 135q-80 137 -80 365zM156 1319l69 -21q33 80 90 80q39 0 117 -39q80 -39 133 -39q129 0 178 158l-69 27q-18 -41 -41 -57.5t-53 -16.5q-16 0 -46 7t-69 28q-41 20 -75 33.5t-60 13.5q-121 0 -174 -174z" />
<glyph unicode="&#xf6;" horiz-adv-x="927" d="M18 578q0 -276 115 -443q117 -170 311 -170q193 0 314 170q116 169 116 443q0 268 -114 438q-117 172 -316 172q-195 0 -311 -172q-115 -170 -115 -438zM147 578q0 219 80 358q84 139 217 139q135 0 220 -139q81 -141 81 -358q0 -227 -81 -365q-84 -135 -220 -135 q-137 0 -217 135q-80 137 -80 365zM160 1393q0 -84 76 -84q75 0 75 84t-75 84q-76 0 -76 -84zM516 1393q0 -84 78 -84q76 0 76 84t-76 84q-78 0 -78 -84z" />
<glyph unicode="&#xf7;" horiz-adv-x="1089" d="M57 481h912v115h-912v-115zM449 119q0 -109 100 -109q98 0 98 109q0 111 -98 110q-100 0 -100 -110zM449 942q0 -109 100 -108q98 -1 98 108q0 111 -98 111q-100 0 -100 -111z" />
<glyph unicode="&#xf8;" horiz-adv-x="927" d="M20 -70l86 -55l97 168q94 -78 229 -78q199 0 322 166q118 168 118 434q0 256 -110 426l102 176l-88 58l-82 -142q-92 86 -239 86q-195 0 -316 -170q-119 -168 -119 -432q0 -266 117 -434v-2zM152 561q0 221 79 354q84 135 220 136q111 0 172 -82l-416 -711 q-55 113 -55 303zM274 154l416 708q51 -115 51 -293q0 -219 -79 -354q-86 -135 -222 -135q-102 0 -166 74z" />
<glyph unicode="&#xf9;" horiz-adv-x="841" d="M66 397q0 -432 268 -432q162 0 282 166v-137l117 8v1157l-123 -14v-737q-18 -150 -84 -244q-70 -94 -176 -94q-78 0 -119 76.5t-41 240.5v772l-124 -14v-748zM182 1524l199 -267h102l-141 265z" />
<glyph unicode="&#xfa;" horiz-adv-x="841" d="M66 397q0 -432 270 -432q162 0 282 180v-151l115 8v1157l-123 -14v-737q-18 -150 -84 -244q-70 -94 -176 -94q-78 0 -119 76.5t-41 240.5v772l-124 -14v-748zM211 1257h100l195 267l-156 -2z" />
<glyph unicode="&#xfb;" horiz-adv-x="841" d="M66 397q0 -432 270 -432q162 0 282 180v-151l115 8v1157l-123 -14v-737q-18 -150 -84 -244q-70 -94 -176 -94q-78 0 -119 76.5t-41 240.5v772l-124 -14v-748zM180 1260h133l99 159l98 -155h135l-182 260l-105 -2z" />
<glyph unicode="&#xfc;" horiz-adv-x="841" d="M66 391q0 -426 268 -426q162 0 282 164v-135l117 8v1139l-127 -17v-721q-18 -150 -86 -239q-68 -94 -172 -94q-78 0 -118 76.5t-40 236.5v758l-124 -15v-735zM117 1389q0 -86 80 -86q77 0 77 86t-77 86q-80 0 -80 -86zM483 1389q0 -86 80 -86q82 0 82 86t-82 86 q-80 0 -80 -86z" />
<glyph unicode="&#xff;" horiz-adv-x="761" d="M-61 1141l389 -1028l-123 -312q-43 -106 -109 -106l-18 4l37 -72l28 -8q102 0 166 174l479 1350l-126 8l-277 -870l-317 870zM92 1389q0 -86 76 -86q78 0 78 86t-78 86q-76 0 -76 -86zM451 1389q0 -86 75 -86q76 0 76 86t-76 86t-75 -86z" />
<glyph unicode="&#x152;" horiz-adv-x="1712" d="M-35 760q0 -348 158 -573.5t405 -225.5q70 0 133.5 20.5t115.5 57.5t94 85t69 103l-2 -233h727l6 123h-592v608l391 2v117h-397v551h551l-12 108h-668v-198q-53 92 -156 157q-123 74 -258 74q-248 0 -407 -215q-158 -213 -158 -561zM104 760q0 293 119 475t299 182 q168 0 293 -168q131 -178 131 -450v-68q0 -289 -129 -475q-121 -176 -297 -176q-184 0 -301 190q-115 193 -115 490z" />
<glyph unicode="&#x153;" horiz-adv-x="1587" d="M-12 567q0 -268 116 -434q123 -168 322 -168q74 0 131 20.5t102.5 56.5t79 85t58.5 106q102 -268 379 -268q215 0 325 221l-53 99q-55 -88 -121 -140q-86 -66 -172 -65q-80 0 -133 39t-87 97t-50.5 126t-24.5 123l649 242l4 47q-23 182 -110 293q-98 123 -238 122 q-258 0 -370 -264q-49 111 -138.5 187.5t-230.5 76.5q-199 0 -322 -170q-117 -166 -116 -432zM119 567q0 217 84 351q84 135 225 135q135 0 219 -135q41 -66 63.5 -153t22.5 -198q0 -223 -86 -354q-84 -135 -219 -135q-139 0 -225 135q-84 133 -84 354zM858 580 q6 211 82 338q84 135 225 135q78 0 124.5 -65t60.5 -200z" />
<glyph unicode="&#x178;" horiz-adv-x="878" d="M-78 1505l447 -907l-115 -608l125 8l117 565l422 942l-140 15l-340 -789l-379 789zM152 1774q0 -88 75 -88q78 0 78 88q0 86 -78 86q-76 0 -75 -86zM508 1774q0 -88 76 -88q78 0 78 88q0 86 -78 86q-76 0 -76 -86z" />
<glyph unicode="&#x2c6;" horiz-adv-x="544" d="M39 1253h133l96 166l99 -164h135l-183 269h-102z" />
<glyph unicode="&#x2dc;" horiz-adv-x="614" d="M12 1319l64 -25q35 80 92 80q39 0 117 -39q86 -41 137 -41q123 0 178 162l-70 25q-33 -74 -90 -74q-41 0 -116 41q-84 43 -136 43q-127 0 -176 -172z" />
<glyph unicode="&#x2000;" horiz-adv-x="1011" />
<glyph unicode="&#x2001;" horiz-adv-x="2023" />
<glyph unicode="&#x2002;" horiz-adv-x="1011" />
<glyph unicode="&#x2003;" horiz-adv-x="2023" />
<glyph unicode="&#x2004;" horiz-adv-x="674" />
<glyph unicode="&#x2005;" horiz-adv-x="505" />
<glyph unicode="&#x2006;" horiz-adv-x="337" />
<glyph unicode="&#x2007;" horiz-adv-x="337" />
<glyph unicode="&#x2008;" horiz-adv-x="252" />
<glyph unicode="&#x2009;" horiz-adv-x="404" />
<glyph unicode="&#x200a;" horiz-adv-x="112" />
<glyph unicode="&#x2010;" horiz-adv-x="559" d="M18 559h404v105h-404v-105z" />
<glyph unicode="&#x2011;" horiz-adv-x="559" d="M18 559h404v105h-404v-105z" />
<glyph unicode="&#x2012;" horiz-adv-x="559" d="M18 559h404v105h-404v-105z" />
<glyph unicode="&#x2013;" horiz-adv-x="960" d="M-51 500h977v104h-977v-104z" />
<glyph unicode="&#x2014;" horiz-adv-x="1949" d="M-98 500h2013v104h-2013v-104z" />
<glyph unicode="&#x2018;" horiz-adv-x="358" d="M82 1196q-2 -106 22 -145q14 -25 68 -25q96 0 96 98v62h-26q-20 35 -21 71v15q0 10 4 22q6 29 25.5 75t58.5 114l-78 18q-90 -186 -118 -221q-31 -39 -31 -84z" />
<glyph unicode="&#x2019;" horiz-adv-x="360" d="M76 1042l80 -22q43 96 71.5 152.5t44.5 78.5q33 51 33 92q0 117 -22 152q-10 14 -26.5 19.5t-39.5 5.5q-96 0 -96 -103v-65q49 -16 61 -52q-6 -25 -17 -56.5t-32 -72.5q-14 -33 -27.5 -64.5t-29.5 -64.5z" />
<glyph unicode="&#x201a;" horiz-adv-x="360" d="M76 -291l86 -22q41 92 68.5 144t44 74.5t23.5 44.5t7 42q0 111 -22 141q-18 25 -66 25q-96 0 -96 -97v-61q49 -8 63 -39q-6 -23 -17 -53.5t-30 -71.5z" />
<glyph unicode="&#x201c;" horiz-adv-x="671" d="M-33 961h103q37 82 74.5 153.5t74.5 136.5q84 144 64 197l-23 57q-23 12 -43 22.5t-41.5 16.5t-43 4t-48.5 -14q-61 -33 -76 -96q-4 -29 8 -70q10 -27 13 -27q6 -4 9 1.5t3 9.5q4 -4 4 -33l6 -31q4 -8 2 -20.5t-6 -28.5l-31 -123zM311 971h109q37 78 76 148.5t75 135.5 q82 142 64 193l-23 57q-23 12 -43 22.5t-40.5 16.5t-42 4t-48.5 -14q-63 -33 -76 -96q-6 -27 7 -70q0 -2 2 -9t6 -15.5t10 -6.5v-20q2 -8 2 -17q0 -6 4 -14q6 -14 -4 -47l-27 -119z" />
<glyph unicode="&#x201d;" horiz-adv-x="671" d="M-33 961h103q37 82 74.5 153.5t74.5 136.5q84 144 64 197l-23 57q-23 12 -43 22.5t-41.5 16.5t-43 4t-48.5 -14q-61 -33 -76 -96q-4 -29 8 -70q10 -27 13 -27q6 -4 9 1.5t3 9.5q4 -4 4 -33l6 -31q4 -8 2 -20.5t-6 -28.5l-31 -123zM311 971h109q37 78 76 148.5t75 135.5 q82 142 64 193l-23 57q-23 12 -43 22.5t-40.5 16.5t-42 4t-48.5 -14q-63 -33 -76 -96q-6 -27 7 -70q0 -2 2 -9t6 -15.5t10 -6.5v-20q2 -8 2 -17q0 -6 4 -14q6 -14 -4 -47l-27 -119z" />
<glyph unicode="&#x201e;" horiz-adv-x="671" d="M-35 -352h96q41 86 80 159.5t80 141.5q88 148 68 201l-23 59q-41 20 -82 35.5t-90 -4.5q-61 -27 -78 -93q-4 -10 -2 -26.5t6 -36.5q4 -4 7.5 -19.5t7.5 -17.5q6 0 6 2q12 0 12 -14q2 -10 2 -19q0 -6 2 -14q6 -14 -4 -53l-35 -133zM309 -352h107q39 86 77.5 159.5 t79.5 141.5q88 148 68 203l-20 57q-45 23 -85 37t-92 -8q-66 -29 -73 -93q-6 -29 4 -67q8 -27 10 -29q6 -6 8 -4v-14q0 -10 1 -17.5t3 -15.5q6 -16 -4 -53l-31 -131z" />
<glyph unicode="&#x2022;" horiz-adv-x="714" d="M145 748q0 -88 60 -148q57 -57 149 -57q88 0 146 57q59 60 59 148t-59 145q-59 61 -148 61q-86 0 -147 -61q-59 -57 -60 -145z" />
<glyph unicode="&#x2026;" horiz-adv-x="1728" d="M55 100q0 -106 99 -106q100 0 100 106q0 111 -100 111q-98 0 -99 -111zM748 100q0 -106 98 -106t98 106q0 111 -98 111t-98 -111zM1440 100q0 -106 100 -106q96 0 96 106q0 111 -96 111q-100 0 -100 -111z" />
<glyph unicode="&#x202f;" horiz-adv-x="404" />
<glyph unicode="&#x2039;" horiz-adv-x="491" d="M74 553l233 -285l90 29l-196 256l205 254l-93 29z" />
<glyph unicode="&#x203a;" horiz-adv-x="489" d="M70 819l200 -258l-194 -258l86 -31l237 289l-239 287z" />
<glyph unicode="&#x205f;" horiz-adv-x="505" />
<glyph unicode="&#x2122;" horiz-adv-x="1681" d="M18 1413h232v-745h112v745h234v92h-578v-92zM743 670h127v667l226 -667h92l225 665v-659h131v829h-190l-209 -659l-213 659h-189v-835z" />
<glyph unicode="&#x25fc;" horiz-adv-x="1157" d="M0 0v1157h1157v-1157h-1157z" />
</font>
</defs>
</svg>
