<?xml version="1.0" standalone="no"?>
<!DOCTYPE svg PUBLIC "-//W3C//DTD SVG 1.1//EN" "http://www.w3.org/Graphics/SVG/1.1/DTD/svg11.dtd" >
<svg>
<metadata>
Created by FontForge 20090914 at Wed Jan 22 14:40:40 2014
 By www-data
(c) 2009, 2012 JVEnaguas Productions, Inc. Some Rights Reserved.
</metadata>
<defs>
<font id="CartonSix" horiz-adv-x="1032" >
  <font-face 
    font-family="Carton Six"
    font-weight="400"
    font-stretch="normal"
    units-per-em="2048"
    panose-1="2 11 6 1 1 1 1 1 1 1"
    ascent="1638"
    descent="-410"
    x-height="1272"
    cap-height="1373"
    bbox="34.5038 -394.16 1787 1898"
    underline-thickness="150"
    underline-position="-142"
    unicode-range="U+0020-U+2026"
  />
<missing-glyph horiz-adv-x="760" 
d="M680 1300v-1300h-600v1300h600zM230 1150v-1000h300v1000h-300z" />
    <glyph glyph-name=".notdef" horiz-adv-x="760" 
d="M680 1300v-1300h-600v1300h600zM230 1150v-1000h300v1000h-300z" />
    <glyph glyph-name="space" unicode=" " horiz-adv-x="400" 
 />
    <glyph glyph-name="space" unicode="&#xa0;" horiz-adv-x="400" 
 />
    <glyph glyph-name="exclam" unicode="!" horiz-adv-x="363" 
d="M48 -4c-6 108 -10.333 200.333 -13 277l281 12l-13 -285zM83 415c-5.33301 381.333 -13.667 724.333 -25 1029l270 13c-23.333 -432 -39.333 -777.667 -48 -1037z" />
    <glyph glyph-name="quotedbl" unicode="&#x22;" horiz-adv-x="731" 
d="M48 1162l-12.999 286.998l283 9c13.333 -207.333 -3 -354.166 -49 -440.499s-108 -130.833 -186 -133.5l-17 130c75.333 20.667 115.666 74.334 120.999 161.001zM418.001 1162l-12.999 286.998l283 9c13.333 -207.333 -3 -354.166 -49 -440.499
s-108 -130.833 -186 -133.5l-17 130c75.333 20.667 115.666 74.334 120.999 161.001z" />
    <glyph glyph-name="dollar" unicode="$" horiz-adv-x="923" 
d="M41 423l204 18.999c21.333 -208.667 88.5 -307.5 201.5 -296.5s174.167 63.667 183.5 158s-84.167 188 -280.5 281s-297.833 245.333 -304.5 457s83.166 355.667 269.499 432s328.5 55.333 426.5 -63s142.333 -280.166 133 -485.499l-248 -19
c-13.333 243.333 -65.666 363 -156.999 359s-149.833 -60.5 -175.5 -169.5s6 -197 95 -264s187.667 -132.5 296 -196.5s169.333 -147.833 183 -251.5s-21.833 -213.167 -106.5 -328.5s-225 -162.5 -421 -141.5s-295.667 190.833 -299 509.5zM531 1704
c6.66699 -582 7 -1250.67 1 -2006l-149 -13c11.333 812 10 1483.67 -4 2015z" />
    <glyph glyph-name="ampersand" unicode="&#x26;" horiz-adv-x="1010" 
d="M660.5 78c-98.333 -62 -217.501 -72.502 -357.501 -31.502s-219.667 154.167 -239 339.5s43.334 315 188.001 389c-100 72.667 -154.333 177.334 -163 314.001s30.166 249.667 116.499 339s205.333 116.5 357 81.5s240.167 -169.833 265.5 -404.5l-220 -34
c-2.66699 152.667 -54.667 228 -156 226s-147.666 -73.333 -138.999 -214s89 -213 241 -217l10 -171c-200 -22.667 -295.167 -103.667 -285.5 -243s72.667 -209.166 189 -209.499s159.833 121.167 130.5 364.5l344 57l33 -179l-151 -37
c-10.667 -184.667 -65.167 -308 -163.5 -370z" />
    <glyph glyph-name="quotesingle" unicode="'" horiz-adv-x="373" 
d="M48 1162l-12.999 286.998l283 9c13.333 -207.333 -3 -354.166 -49 -440.499s-108 -130.833 -186 -133.5l-17 130c75.333 20.667 115.666 74.334 120.999 161.001z" />
    <glyph glyph-name="comma" unicode="," horiz-adv-x="373" 
d="M48 -13l-12.999 286.998l283 9c13.333 -207.333 -3 -354.166 -49 -440.499s-108 -130.833 -186 -133.5l-17 130c75.333 20.667 115.666 74.334 120.999 161.001z" />
    <glyph glyph-name="hyphen" unicode="-" horiz-adv-x="701" 
d="M57 757l596 17l-13 -239l-587 22z" />
    <glyph glyph-name="period" unicode="." horiz-adv-x="351" 
d="M48 -4c-6 108 -10.333 200.333 -13 277l281 12l-13 -285z" />
    <glyph glyph-name="zero" unicode="0" horiz-adv-x="965" 
d="M181.5 273c-97.667 144 -135.831 342 -114.498 594s107.666 420.333 258.999 505s289.833 56.5 415.5 -84.5s174.5 -350.5 146.5 -628.5s-128.333 -447.833 -301 -509.5s-307.834 -20.5 -405.501 123.5zM675.503 723c14.333 178.667 -12.001 312.332 -79.001 400.999
s-138 92.834 -213 12.501s-109.833 -209 -104.5 -386s30.833 -297 76.5 -360s106.834 -68 183.501 -15s122.167 168.833 136.5 347.5z" />
    <glyph glyph-name="one" unicode="1" horiz-adv-x="386" 
d="M338 98l-197 -4.00098c-2.66699 286.667 -3.66699 641.667 -3 1065h-103l1 199l315 4c-8.66699 -423.333 -13 -844.666 -13 -1264z" />
    <glyph glyph-name="two" unicode="2" horiz-adv-x="806" 
d="M190.5 1424.5c103.667 82.333 224.501 104 362.501 65s203.667 -176.167 197 -411.5s-151 -471.333 -433 -708l454 -15l-4 -218l-680 20l-23 227c291.333 244 447.5 456.5 468.5 637.5s-17.333 272.667 -115 275s-149.834 -76.5 -156.501 -236.5l-210 15
c-10.667 150.667 35.833 267.167 139.5 349.5z" />
    <glyph glyph-name="three" unicode="3" horiz-adv-x="863" 
d="M39 448l218.997 35.0029c-1.33301 -160.667 50.334 -240.834 155.001 -240.501s161.834 70.166 171.501 209.499s-85.5 220.333 -285.5 243l10 171c152 4 232.333 76.333 241 217s-37.666 212 -138.999 214s-153.333 -73.333 -156 -226l-220 34
c25.333 234.667 113.833 369.5 265.5 404.5s270.667 7.83301 357 -81.5s125.166 -202.333 116.499 -339s-63 -241.334 -163 -314.001c144.667 -74 207.334 -203.667 188.001 -389s-99 -298.5 -239 -339.5s-259.167 -30.5 -357.5 31.5s-152.833 185.333 -163.5 370z" />
    <glyph glyph-name="four" unicode="4" horiz-adv-x="886" 
d="M726 631h121l4 -207l-120 -4v-316h-209v311l-478 9l-9 182c175.333 297.333 333.333 584 474 860h213zM529 627l-8.99902 476.001c-96.667 -176.667 -179.334 -338.334 -248.001 -485.001z" />
    <glyph glyph-name="five" unicode="5" horiz-adv-x="896" 
d="M35 409l212.999 34.001c8 -207.333 71 -305.333 189 -294s180.5 106 187.5 284s-44.167 276.5 -153.5 295.5s-176.666 -28.5 -201.999 -142.5l-196 9l8 760l703 30l13 -222l-520 -38l-11 -284c65.333 96.667 173 124 323 82s232.833 -160.833 248.5 -356.5
s-17.333 -351.834 -99 -468.501s-215 -163.5 -400 -140.5s-286.167 173.5 -303.5 451.5z" />
    <glyph glyph-name="six" unicode="6" horiz-adv-x="856" 
d="M508 812.5c94 -10.333 169.668 -50.999 227.001 -121.999s77.833 -187.5 61.5 -349.5s-85.166 -269.333 -206.499 -322s-244.166 -34.834 -368.499 53.499s-185.833 281.5 -184.5 579.5s44.166 497.333 128.499 598s210.666 142.334 378.999 125.001
s251.166 -152 248.499 -404l-210 -4c4.66699 142 -46.333 206.667 -153 194s-164.667 -153.334 -174 -422.001c74 59.333 158 83.833 252 73.5zM405.001 228.001c94 -16 157.166 23.5 189.499 118.5s18.833 174.5 -40.5 238.5s-155.666 59.667 -288.999 -13
c-0.666992 -213.333 46 -328 140 -344z" />
    <glyph glyph-name="seven" unicode="7" horiz-adv-x="803" 
d="M760 1396l8 -258l-321 -1164l-238 26l309 1142l-478 -24l-5 250z" />
    <glyph glyph-name="eight" unicode="8" horiz-adv-x="850" 
d="M396 627c-112 -79.333 -161.665 -170 -148.998 -272s62.167 -156 148.5 -162s143.666 29.333 171.999 106s29.666 145 3.99902 205s-84.167 101 -175.5 123zM529.002 925.5c22.667 37 32 86.3311 28 147.998s-25.333 103.834 -64 126.501s-87.667 28.834 -147 18.501
s-93.833 -57.5 -103.5 -141.5s39.833 -168.667 148.5 -254c69.333 31.333 115.333 65.5 138 102.5zM217.002 724.998c-121.333 113.333 -176.667 243.998 -166 391.998s52.834 244.667 126.501 290s157 65.833 250 61.5s170.833 -39.166 233.5 -104.499
s98.167 -147 106.5 -245s0.5 -174.667 -23.5 -230s-74.333 -108.333 -151 -159c121.333 -70 188.666 -153.667 201.999 -251s6.5 -188.5 -20.5 -273.5s-81 -146.667 -162 -185s-166 -50.5 -255 -36.5s-162 49.5 -219 106.5s-88.5 133.833 -94.5 230.5
s4.66699 176.334 32 239.001s74.333 117.667 141 165z" />
    <glyph glyph-name="nine" unicode="9" horiz-adv-x="866" 
d="M358 555.5c-94 10.333 -171.332 54.332 -231.999 131.999s-81.167 194.167 -61.5 349.5s90.167 259.333 211.5 312s244.166 34.834 368.499 -53.499s185.833 -281.5 184.5 -579.5s-37.5 -497.333 -108.5 -598s-192.333 -142.334 -364 -125.001s-266.167 142 -283.5 374
l210 34c15.333 -142 76.333 -206.667 183 -194s154.667 153.334 144 422.001c-74 -59.333 -158 -83.833 -252 -73.5zM461.001 1140c-94 16 -157.166 -23.5 -189.499 -118.5s-18.833 -174.5 40.5 -238.5s155.666 -59.667 288.999 13c0.666992 213.333 -46 328 -140 344z" />
    <glyph glyph-name="colon" unicode=":" horiz-adv-x="359" 
d="M52 136c-6 108 -10.333 200.333 -13 277l281 12l-13 -285zM324 953c-108 -6 -200.333 -10.333 -277 -13l-12 281l285 -13z" />
    <glyph glyph-name="semicolon" unicode=";" horiz-adv-x="377" 
d="M324 953c-108 -6 -200.333 -10.333 -277 -13l-12 281l285 -13zM52 122l-12.999 286.998l283 9c13.333 -207.333 -3 -354.166 -49 -440.499s-108 -130.833 -186 -133.5l-17 130c75.333 20.667 115.666 74.334 120.999 161.001z" />
    <glyph glyph-name="question" unicode="?" horiz-adv-x="801" 
d="M264 -4c-6 108 -10.333 200.333 -13 277l281 12l-13 -285zM190.5 1424.5c103.667 82.333 224.501 104 362.501 65s208 -168.833 210 -389.5s-91 -379.667 -279 -477l-10 -221l-177 -2l-5 349c168 41.333 255.333 142.333 262 303s-38.833 242.167 -136.5 244.5
s-149.834 -76.5 -156.501 -236.5l-210 15c-10.667 150.667 35.833 267.167 139.5 349.5z" />
    <glyph glyph-name="A" unicode="A" 
d="M666 1467l331 -1491h-245l-51 346l-376 14l-52 -406l-238 -4c82 429.333 170.333 943 265 1541h366zM340 581l346 -7.99902c-64.667 273.333 -133.667 483.666 -207 630.999z" />
    <glyph glyph-name="B" unicode="B" horiz-adv-x="953" 
d="M571.5 1372.5c134.333 -56.333 202.669 -184.667 205.002 -385s-69.834 -330.833 -216.501 -391.5c238.667 -37.333 329.667 -183.5 273 -438.5s-315.667 -370.167 -777 -345.5c-4.66699 521.333 -11.667 1058 -21 1610c223.333 23.333 402.166 6.83301 536.499 -49.5z
M263.003 1161l15.999 -433c196.667 14 298.334 90.833 305.001 230.5s-100.333 207.167 -321 202.5zM253.002 488.999l-5 -408c255.333 16.667 385 86 389 208s-124 188.667 -384 200z" />
    <glyph glyph-name="C" unicode="C" horiz-adv-x="1061" 
d="M530.5 1177c-125 -52.667 -195.668 -188.499 -212.001 -407.499s15.334 -373 95.001 -462s160.667 -120 243 -93s123.5 150.167 123.5 369.5l220 -25c17.333 -67.333 0.166016 -182 -51.501 -344s-167.667 -251 -348 -267s-319.666 79.833 -417.999 287.5
s-126.5 449.167 -84.5 724.5s186.667 437.5 434 486.5s406.333 -120.5 477 -508.5l-250 -77c-27.333 263.333 -103.5 368.666 -228.5 315.999z" />
    <glyph glyph-name="D" unicode="D" horiz-adv-x="979" 
d="M554.5 1422c137 -57.333 236.167 -204.335 297.5 -441.002s36.333 -458.167 -75 -664.5s-356.333 -291.166 -735 -254.499l-7 1421c209.333 16.667 382.5 -3.66602 519.5 -60.999zM253 1194l-4.99805 -886.002c185.333 -6.66699 307.666 48.333 366.999 165
s66.666 261.834 21.999 435.501s-172.667 268.834 -384 285.501z" />
    <glyph glyph-name="E" unicode="E" horiz-adv-x="728" 
d="M693 1406l-5.99805 -313.999c-140.667 10 -285.334 16 -434.001 18l6 -414l384 -4l-20 -234h-340v-289l400 6v-258c-206 6 -418.333 7 -637 3c13.333 447.333 9.66602 932.666 -11.001 1456z" />
    <glyph glyph-name="F" unicode="F" horiz-adv-x="697" 
d="M662 1380v-303l-402 9l-2 -415l334 9l-3 -224l-312 -5l20 -468l-238 -5c0 271.333 -8 732.333 -24 1383z" />
    <glyph glyph-name="G" unicode="G" horiz-adv-x="1030" 
d="M959 924l-239.001 -23.9971c5.33301 252 -51.334 369 -170.001 351s-199.667 -144.833 -243 -380.5s-31.166 -408.334 36.501 -518.001s147.334 -160.334 239.001 -152.001s151.834 100.166 180.501 275.499l-253 -4l1 211l463 3
c1.33301 -376 -78.834 -607.5 -240.501 -694.5s-318.5 -56.667 -470.5 91s-207.5 422.667 -166.5 825s201 600 480 593s406.5 -199.167 382.5 -576.5z" />
    <glyph glyph-name="H" unicode="H" horiz-adv-x="875" 
d="M291 1449l-15 -679h333l4 595h221l6 -1348l-246 -6l15 529l-356 12l-5 -607l-207 6c0 576.667 -2 1078 -6 1504z" />
    <glyph glyph-name="I" unicode="I" horiz-adv-x="322" 
d="M287 1373c-14.667 -415.333 -17.333 -860.001 -8 -1334l-244 -7c16.667 380.667 19 825.334 7 1334z" />
    <glyph glyph-name="J" unicode="J" horiz-adv-x="897" 
d="M808 1432c36 -752 14.001 -1218.83 -65.999 -1400.5s-210.333 -267.834 -391 -258.501s-286 177.333 -316 504l249 41c7.33301 -228.667 68.166 -326 182.499 -292s151.5 491 111.5 1371z" />
    <glyph glyph-name="K" unicode="K" horiz-adv-x="1016" 
d="M42 -123c8.66699 450 6.33301 989.333 -7 1618l255 -5v-717l467 689l224 -154c-246 -302 -418 -523.333 -516 -664c205.333 -275.333 358.333 -470 459 -584l-185 -180l-462 614l-12 -605z" />
    <glyph glyph-name="L" unicode="L" horiz-adv-x="750" 
d="M66 -28c-16.667 578.667 -27 1043 -31 1393l224 20c-4 -546 -4 -929.333 0 -1150l452 21l4 -271z" />
    <glyph glyph-name="M" unicode="M" horiz-adv-x="1194" 
d="M318 1460l276 -963l152 1054l353 -17l60 -1545l-222 8c-9.33301 335.333 -24 727.333 -44 1176c-63.333 -364.667 -114 -687 -152 -967l-258 -11c-93.333 290 -172.333 588.667 -237 896l6 -1049l-211 -15c8 323.333 6 789.333 -6 1398z" />
    <glyph glyph-name="N" unicode="N" horiz-adv-x="907" 
d="M312 1287l342 -905.999c2 142 -2.33301 495.667 -13 1061h226c-8 -388 -6.33301 -901.333 5 -1540l-221 -10l-388 938c-5.33301 -278 -4.33301 -529 3 -753l-220 -6c6.66699 295.333 3 705.666 -11 1231z" />
    <glyph glyph-name="O" unicode="O" horiz-adv-x="1085" 
d="M201 195.5c-110.667 156.333 -153.832 354.666 -129.499 594.999s122.333 400.833 294 481.5s328.667 53.834 471 -80.499s197.666 -334 165.999 -599s-145.5 -436.5 -341.5 -514.5s-349.333 -38.833 -460 117.5zM805.502 629c16.333 141.333 -19.167 256 -106.5 344
s-180.666 92 -279.999 12s-146 -189.667 -140 -329s42 -239.166 108 -299.499s148.167 -65.333 246.5 -15s155.666 146.166 171.999 287.499z" />
    <glyph glyph-name="P" unicode="P" horiz-adv-x="935" 
d="M35 1378c14 -499.333 25.333 -951.334 34 -1356h211c-9.33301 204.667 -14.333 573 -15 1105c206 18 325.5 -30.167 358.5 -144.5s3.66699 -197.166 -88 -248.499s-201.167 -79.333 -328.5 -84l-7 -264c349.333 64 553.333 193 612 387s22.667 350 -108 468
s-353.667 163.667 -669 137z" />
    <glyph glyph-name="Q" unicode="Q" horiz-adv-x="1067" 
d="M73.5 795c-25.667 -289.333 32.668 -498.169 175.001 -626.502s296.333 -161.166 462 -98.499s260.667 232.334 285 509.001s-18.834 493 -129.501 649s-264 195.167 -460 117.5s-306.833 -261.167 -332.5 -550.5zM688.002 1075.5
c70.667 -78.333 108.999 -205 114.999 -380s-43 -296.667 -147 -365s-199.667 -61.333 -287 21s-123 209 -107 380s73.333 290.667 172 359s183.334 63.333 254.001 -15zM462.001 510.997l300 -664l172 107l-322 642z" />
    <glyph glyph-name="R" unicode="R" horiz-adv-x="903" 
d="M35 1408c14 -476 25.335 -939.666 34.002 -1391h194c-10 168.667 -9.33301 548.334 2 1139c206 30 325.5 -8.83301 358.5 -116.5s3.66699 -196.334 -88 -266.001s-201.167 -106.834 -328.5 -111.501l-7 -210l189 20c71.333 -118 145.666 -311.333 222.999 -580l253 51
c-140.667 295.333 -240.334 488 -299.001 578c154 94 242.833 219 266.5 375s-24.5 290.167 -144.5 402.5s-337.667 148.833 -653 109.5z" />
    <glyph glyph-name="S" unicode="S" horiz-adv-x="923" 
d="M41 423l204.001 18.999c21.333 -208.667 86.833 -307.5 196.5 -296.5s169.167 63.667 178.5 158s-82.5 188 -275.5 281s-292.833 245.333 -299.5 457s83.166 355.667 269.499 432s328.5 55.333 426.5 -63s142.333 -280.166 133 -485.499l-248 -19
c-13.333 243.333 -65.666 363 -156.999 359s-149.833 -60.5 -175.5 -169.5s6 -197 95 -264s186 -132.5 291 -196.5s164.333 -147.833 178 -251.5s-21.833 -213.167 -106.5 -328.5s-223.334 -162.5 -416.001 -141.5s-290.667 190.833 -294 509.5z" />
    <glyph glyph-name="T" unicode="T" horiz-adv-x="909" 
d="M868 1505l5.99805 -301l-307 10c0.666992 -459.333 8.66699 -829 24 -1109l-255 -13c16.667 293.333 21 659 13 1097c-97.333 0 -197.666 -8.66699 -300.999 -26c4.66699 72 0.333984 168.667 -12.999 290c226 2.66699 503.667 20 833 52z" />
    <glyph glyph-name="U" unicode="U" horiz-adv-x="921" 
d="M834.5 268.5c-34.333 -139 -126.167 -232.333 -275.5 -280s-274 -3 -374 134s-140.667 504.833 -122 1103.5l232 7c-29.333 -546 -16.333 -859 39 -939s135.333 -84.667 240 -14s132.667 421.667 84 1053l228 10c0 -577.333 -17.167 -935.5 -51.5 -1074.5z" />
    <glyph glyph-name="V" unicode="V" horiz-adv-x="1036" 
d="M342 90l-307 1253l224 46l231 -991l253 1013l258 -40l-413 -1276z" />
    <glyph glyph-name="W" unicode="W" horiz-adv-x="1422" 
d="M312 1450l90 -975.001l157 719l271 6l170 -777l131 1012l256 -32l-257 -1347h-272l-165 867l-185 -798l-218 -21c-76.667 430.667 -161.667 858.334 -255 1283z" />
    <glyph glyph-name="X" unicode="X" horiz-adv-x="1051" 
d="M35 1334l248 44l220 -581l211 586l262 -24l-297 -712l337 -730l-231 -28l-281 601l-221 -524l-223 28l269 654z" />
    <glyph glyph-name="Y" unicode="Y" horiz-adv-x="1074" 
d="M35 1294l232 44.001l244 -547l307 575l221 -57l-430 -748c-2 -236 0.666992 -439 8 -609l-242 -7c15.333 267.333 22 473.666 20 618.999z" />
    <glyph glyph-name="Z" unicode="Z" horiz-adv-x="811" 
d="M724 1340l10 -287.001l-443 -800l485 31l-12 -270c-187.333 0 -422.333 -3.66699 -705 -11l-6 256l426 813c-116 -5.33301 -264 -13.666 -444 -24.999l6 261z" />
    <glyph glyph-name="a" unicode="a" 
d="M666 1467l331 -1491h-245l-51 346l-376 14l-52 -406l-238 -4c82 429.333 170.333 943 265 1541h366zM340 581l346 -7.99902c-64.667 273.333 -133.667 483.666 -207 630.999z" />
    <glyph glyph-name="b" unicode="b" horiz-adv-x="953" 
d="M571.5 1372.5c134.333 -56.333 202.669 -184.667 205.002 -385s-69.834 -330.833 -216.501 -391.5c238.667 -37.333 329.667 -183.5 273 -438.5s-315.667 -370.167 -777 -345.5c-4.66699 521.333 -11.667 1058 -21 1610c223.333 23.333 402.166 6.83301 536.499 -49.5z
M263.003 1161l15.999 -433c196.667 14 298.334 90.833 305.001 230.5s-100.333 207.167 -321 202.5zM253.002 488.999l-5 -408c255.333 16.667 385 86 389 208s-124 188.667 -384 200z" />
    <glyph glyph-name="c" unicode="c" horiz-adv-x="1061" 
d="M530.5 1177c-125 -52.667 -195.668 -188.499 -212.001 -407.499s15.334 -373 95.001 -462s160.667 -120 243 -93s123.5 150.167 123.5 369.5l220 -25c17.333 -67.333 0.166016 -182 -51.501 -344s-167.667 -251 -348 -267s-319.666 79.833 -417.999 287.5
s-126.5 449.167 -84.5 724.5s186.667 437.5 434 486.5s406.333 -120.5 477 -508.5l-250 -77c-27.333 263.333 -103.5 368.666 -228.5 315.999z" />
    <glyph glyph-name="d" unicode="d" horiz-adv-x="979" 
d="M554.5 1422c137 -57.333 236.167 -204.335 297.5 -441.002s36.333 -458.167 -75 -664.5s-356.333 -291.166 -735 -254.499l-7 1421c209.333 16.667 382.5 -3.66602 519.5 -60.999zM253 1194l-4.99805 -886.002c185.333 -6.66699 307.666 48.333 366.999 165
s66.666 261.834 21.999 435.501s-172.667 268.834 -384 285.501z" />
    <glyph glyph-name="e" unicode="e" horiz-adv-x="728" 
d="M693 1406l-5.99805 -313.999c-140.667 10 -285.334 16 -434.001 18l6 -414l384 -4l-20 -234h-340v-289l400 6v-258c-206 6 -418.333 7 -637 3c13.333 447.333 9.66602 932.666 -11.001 1456z" />
    <glyph glyph-name="f" unicode="f" horiz-adv-x="697" 
d="M662 1380v-303l-402 9l-2 -415l334 9l-3 -224l-312 -5l20 -468l-238 -5c0 271.333 -8 732.333 -24 1383z" />
    <glyph glyph-name="g" unicode="g" horiz-adv-x="1030" 
d="M959 924l-239.001 -23.9971c5.33301 252 -51.334 369 -170.001 351s-199.667 -144.833 -243 -380.5s-31.166 -408.334 36.501 -518.001s147.334 -160.334 239.001 -152.001s151.834 100.166 180.501 275.499l-253 -4l1 211l463 3
c1.33301 -376 -78.834 -607.5 -240.501 -694.5s-318.5 -56.667 -470.5 91s-207.5 422.667 -166.5 825s201 600 480 593s406.5 -199.167 382.5 -576.5z" />
    <glyph glyph-name="h" unicode="h" horiz-adv-x="875" 
d="M291 1449l-15 -679h333l4 595h221l6 -1348l-246 -6l15 529l-356 12l-5 -607l-207 6c0 576.667 -2 1078 -6 1504z" />
    <glyph glyph-name="i" unicode="i" horiz-adv-x="322" 
d="M287 1373c-14.667 -415.333 -17.333 -860.001 -8 -1334l-244 -7c16.667 380.667 19 825.334 7 1334z" />
    <glyph glyph-name="j" unicode="j" horiz-adv-x="897" 
d="M808 1432c36 -752 14.001 -1218.83 -65.999 -1400.5s-210.333 -267.834 -391 -258.501s-286 177.333 -316 504l249 41c7.33301 -228.667 68.166 -326 182.499 -292s151.5 491 111.5 1371z" />
    <glyph glyph-name="k" unicode="k" horiz-adv-x="1016" 
d="M42 -123c8.66699 450 6.33301 989.333 -7 1618l255 -5v-717l467 689l224 -154c-246 -302 -418 -523.333 -516 -664c205.333 -275.333 358.333 -470 459 -584l-185 -180l-462 614l-12 -605z" />
    <glyph glyph-name="l" unicode="l" horiz-adv-x="750" 
d="M66 -28c-16.667 578.667 -27 1043 -31 1393l224 20c-4 -546 -4 -929.333 0 -1150l452 21l4 -271z" />
    <glyph glyph-name="m" unicode="m" horiz-adv-x="1194" 
d="M318 1460l276 -963l152 1054l353 -17l60 -1545l-222 8c-9.33301 335.333 -24 727.333 -44 1176c-63.333 -364.667 -114 -687 -152 -967l-258 -11c-93.333 290 -172.333 588.667 -237 896l6 -1049l-211 -15c8 323.333 6 789.333 -6 1398z" />
    <glyph glyph-name="n" unicode="n" horiz-adv-x="907" 
d="M312 1287l342 -905.999c2 142 -2.33301 495.667 -13 1061h226c-8 -388 -6.33301 -901.333 5 -1540l-221 -10l-388 938c-5.33301 -278 -4.33301 -529 3 -753l-220 -6c6.66699 295.333 3 705.666 -11 1231z" />
    <glyph glyph-name="o" unicode="o" horiz-adv-x="1085" 
d="M201 195.5c-110.667 156.333 -153.832 354.666 -129.499 594.999s122.333 400.833 294 481.5s328.667 53.834 471 -80.499s197.666 -334 165.999 -599s-145.5 -436.5 -341.5 -514.5s-349.333 -38.833 -460 117.5zM805.502 629c16.333 141.333 -19.167 256 -106.5 344
s-180.666 92 -279.999 12s-146 -189.667 -140 -329s42 -239.166 108 -299.499s148.167 -65.333 246.5 -15s155.666 146.166 171.999 287.499z" />
    <glyph glyph-name="p" unicode="p" horiz-adv-x="935" 
d="M35 1378c14 -499.333 25.333 -951.334 34 -1356h211c-9.33301 204.667 -14.333 573 -15 1105c206 18 325.5 -30.167 358.5 -144.5s3.66699 -197.166 -88 -248.499s-201.167 -79.333 -328.5 -84l-7 -264c349.333 64 553.333 193 612 387s22.667 350 -108 468
s-353.667 163.667 -669 137z" />
    <glyph glyph-name="q" unicode="q" horiz-adv-x="1067" 
d="M73.5 795c-25.667 -289.333 32.668 -498.169 175.001 -626.502s296.333 -161.166 462 -98.499s260.667 232.334 285 509.001s-18.834 493 -129.501 649s-264 195.167 -460 117.5s-306.833 -261.167 -332.5 -550.5zM688.002 1075.5
c70.667 -78.333 108.999 -205 114.999 -380s-43 -296.667 -147 -365s-199.667 -61.333 -287 21s-123 209 -107 380s73.333 290.667 172 359s183.334 63.333 254.001 -15zM462.001 510.997l300 -664l172 107l-322 642z" />
    <glyph glyph-name="r" unicode="r" horiz-adv-x="903" 
d="M35 1408c14 -476 25.335 -939.666 34.002 -1391h194c-10 168.667 -9.33301 548.334 2 1139c206 30 325.5 -8.83301 358.5 -116.5s3.66699 -196.334 -88 -266.001s-201.167 -106.834 -328.5 -111.501l-7 -210l189 20c71.333 -118 145.666 -311.333 222.999 -580l253 51
c-140.667 295.333 -240.334 488 -299.001 578c154 94 242.833 219 266.5 375s-24.5 290.167 -144.5 402.5s-337.667 148.833 -653 109.5z" />
    <glyph glyph-name="s" unicode="s" horiz-adv-x="923" 
d="M41 423l204.001 18.999c21.333 -208.667 86.833 -307.5 196.5 -296.5s169.167 63.667 178.5 158s-82.5 188 -275.5 281s-292.833 245.333 -299.5 457s83.166 355.667 269.499 432s328.5 55.333 426.5 -63s142.333 -280.166 133 -485.499l-248 -19
c-13.333 243.333 -65.666 363 -156.999 359s-149.833 -60.5 -175.5 -169.5s6 -197 95 -264s186 -132.5 291 -196.5s164.333 -147.833 178 -251.5s-21.833 -213.167 -106.5 -328.5s-223.334 -162.5 -416.001 -141.5s-290.667 190.833 -294 509.5z" />
    <glyph glyph-name="t" unicode="t" horiz-adv-x="909" 
d="M868 1505l5.99805 -301l-307 10c0.666992 -459.333 8.66699 -829 24 -1109l-255 -13c16.667 293.333 21 659 13 1097c-97.333 0 -197.666 -8.66699 -300.999 -26c4.66699 72 0.333984 168.667 -12.999 290c226 2.66699 503.667 20 833 52z" />
    <glyph glyph-name="u" unicode="u" horiz-adv-x="921" 
d="M834.5 268.5c-34.333 -139 -126.167 -232.333 -275.5 -280s-274 -3 -374 134s-140.667 504.833 -122 1103.5l232 7c-29.333 -546 -16.333 -859 39 -939s135.333 -84.667 240 -14s132.667 421.667 84 1053l228 10c0 -577.333 -17.167 -935.5 -51.5 -1074.5z" />
    <glyph glyph-name="v" unicode="v" horiz-adv-x="1036" 
d="M342 90l-307 1253l224 46l231 -991l253 1013l258 -40l-413 -1276z" />
    <glyph glyph-name="w" unicode="w" horiz-adv-x="1422" 
d="M312 1450l90 -975.001l157 719l271 6l170 -777l131 1012l256 -32l-257 -1347h-272l-165 867l-185 -798l-218 -21c-76.667 430.667 -161.667 858.334 -255 1283z" />
    <glyph glyph-name="x" unicode="x" horiz-adv-x="1051" 
d="M35 1334l248 44l220 -581l211 586l262 -24l-297 -712l337 -730l-231 -28l-281 601l-221 -524l-223 28l269 654z" />
    <glyph glyph-name="y" unicode="y" horiz-adv-x="1074" 
d="M35 1294l232 44.001l244 -547l307 575l221 -57l-430 -748c-2 -236 0.666992 -439 8 -609l-242 -7c15.333 267.333 22 473.666 20 618.999z" />
    <glyph glyph-name="z" unicode="z" horiz-adv-x="811" 
d="M724 1340l10 -287.001l-443 -800l485 31l-12 -270c-187.333 0 -422.333 -3.66699 -705 -11l-6 256l426 813c-116 -5.33301 -264 -13.666 -444 -24.999l6 261z" />
    <glyph glyph-name="exclamdown" unicode="&#xa1;" horiz-adv-x="363" 
d="M315 1383c6 -108 10.333 -200.333 13 -277l-281 -12l13 285zM280 964c5.33301 -381.333 13.667 -724.333 25 -1029l-270 -13c23.333 432 39.333 777.667 48 1037z" />
    <glyph glyph-name="questiondown" unicode="&#xbf;" horiz-adv-x="801" 
d="M537 1383c6 -108 10.333 -200.333 13 -277l-281 -12l13 285zM610.5 -45.5c-103.667 -82.333 -224.501 -104 -362.501 -65s-208 168.833 -210 389.5s91 379.667 279 477l10 221l177 2l5 -349c-168 -41.333 -255.333 -142.333 -262 -303s38.833 -242.167 136.5 -244.5
s149.834 76.5 156.501 236.5l210 -15c10.667 -150.667 -35.833 -267.167 -139.5 -349.5z" />
    <glyph glyph-name="Agrave" unicode="&#xc0;" 
d="M666 1467l331 -1491h-245l-51 346l-376 14l-52 -406l-238 -4c82 429.333 170.333 943 265 1541h366zM340 581l346 -7.99902c-64.667 273.333 -133.667 483.666 -207 630.999zM497 1529c-95.333 67.333 -179.668 123.667 -253.001 169l93 149
c94.667 -74.667 178.334 -144.667 251.001 -210z" />
    <glyph glyph-name="Aacute" unicode="&#xc1;" 
d="M666 1467l331 -1491h-245l-51 346l-376 14l-52 -406l-238 -4c82 429.333 170.333 943 265 1541h366zM340 581l346 -7.99902c-64.667 273.333 -133.667 483.666 -207 630.999zM365 1643c73.333 65.333 157 135.332 251 209.999l94 -149
c-74 -45.333 -158.667 -101.666 -254 -168.999z" />
    <glyph glyph-name="Acircumflex" unicode="&#xc2;" 
d="M666 1467l331 -1491h-245l-51 346l-376 14l-52 -406l-238 -4c82 429.333 170.333 943 265 1541h366zM340 581l346 -7.99902c-64.667 273.333 -133.667 483.666 -207 630.999zM806 1633l-86 -111l-227 122l-257 -123l-61 116l319 200z" />
    <glyph glyph-name="Atilde" unicode="&#xc3;" 
d="M666 1467l331 -1491h-245l-51 346l-376 14l-52 -406l-238 -4c82 429.333 170.333 943 265 1541h366zM340 581l346 -7.99902c-64.667 273.333 -133.667 483.666 -207 630.999zM263 1798c86.667 22.667 182.667 3.83105 288 -56.502s156.666 -38.166 153.999 66.501l111 -8
c-3.33301 -135.333 -40.166 -214.333 -110.499 -237s-161 -5 -272 53s-165.5 34.333 -163.5 -71l-130 -1c-4.66699 146.667 36.333 231.334 123 254.001z" />
    <glyph glyph-name="Adieresis" unicode="&#xc4;" 
d="M666 1467l331 -1491h-245l-51 346l-376 14l-52 -406l-238 -4c82 429.333 170.333 943 265 1541h366zM340 581l346 -7.99902c-64.667 273.333 -133.667 483.666 -207 630.999zM379.5 1767.5c26.333 -26.333 39.5 -57.833 39.5 -94.5
c0 -37.333 -13.167 -69.166 -39.5 -95.499s-57.833 -39.5 -94.5 -39.5c-37.333 0 -69 13.167 -95 39.5s-39 58.166 -39 95.499c0 36.667 13 68.167 39 94.5s57.667 39.5 95 39.5c36.667 0 68.167 -13.167 94.5 -39.5zM785.5 1767.5c26.333 -26.333 39.5 -57.833 39.5 -94.5
c0 -37.333 -13.167 -69.166 -39.5 -95.499s-57.833 -39.5 -94.5 -39.5c-37.333 0 -69 13.167 -95 39.5s-39 58.166 -39 95.499c0 36.667 13 68.167 39 94.5s57.667 39.5 95 39.5c36.667 0 68.167 -13.167 94.5 -39.5z" />
    <glyph glyph-name="Aring" unicode="&#xc5;" 
d="M666 1467l331 -1491h-245l-51 346l-376 14l-52 -406l-238 -4c82 429.333 170.333 943 265 1541h366zM340 581l346 -7.99902c-64.667 273.333 -133.667 483.666 -207 630.999zM601.5 1836.5c36.333 -36.333 54.5 -79.833 54.5 -130.5
c0 -51.333 -18.167 -95.166 -54.5 -131.499s-80.166 -54.5 -131.499 -54.5c-50.667 0 -94.167 18.167 -130.5 54.5s-54.5 80.166 -54.5 131.499c0 50.667 18.167 94.167 54.5 130.5s79.833 54.5 130.5 54.5c51.333 0 95.166 -18.167 131.499 -54.5zM475 1776
c-21.333 0 -39.333 -6.66699 -54 -20s-22 -29.666 -22 -48.999c0 -18.667 7.33301 -34.834 22 -48.501s32.667 -20.5 54 -20.5s39.333 6.83301 54 20.5s22 29.834 22 48.501c0 19.333 -7.33301 35.666 -22 48.999s-32.667 20 -54 20z" />
    <glyph glyph-name="AE" unicode="&#xc6;" horiz-adv-x="1366" 
d="M340 581l346 -8l6 642l-213 -11zM35 -73l272 1553c402.667 -6.66699 744 0.666016 1024 21.999l-14 -318l-424 23l4 -420l376 -10l-9 -232h-344l-4 -290l393 8l8 -250h-644l14 308l-362 18l-53 -412h-237z" />
    <glyph glyph-name="Ccedilla" unicode="&#xc7;" horiz-adv-x="1061" 
d="M759 861l250.001 76.999c-70.667 388 -229.667 557.5 -477 508.5s-392 -211.167 -434 -486.5s-13.833 -516.833 84.5 -724.5s237.666 -303.5 417.999 -287.5s296.333 105 348 267s68.834 276.667 51.501 344l-220 25c0 -219.333 -41.167 -342.5 -123.5 -369.5
s-163.333 4 -243 93s-111.334 243 -95.001 462s87 354.833 212 407.5s201.167 -52.666 228.5 -315.999zM526.001 27.999l-18 -179c84 -4 131.833 -26.167 143.5 -66.5s-13 -65.333 -74 -75s-91.5 17.5 -91.5 81.5l-135 -17c18.667 -108.667 75.667 -164 171 -166
s163 14.833 203 50.5s57 82.5 51 140.5s-52 99 -138 123l5 111z" />
    <glyph glyph-name="Egrave" unicode="&#xc8;" horiz-adv-x="728" 
d="M693 1406l-5.99805 -313.999c-140.667 10 -285.334 16 -434.001 18l6 -414l384 -4l-20 -234h-340v-289l400 6v-258c-206 6 -418.333 7 -637 3c13.333 447.333 9.66602 932.666 -11.001 1456zM459.002 1529c-95.333 67.333 -179.668 123.667 -253.001 169l93 149
c94.667 -74.667 178.334 -144.667 251.001 -210z" />
    <glyph glyph-name="Eacute" unicode="&#xc9;" horiz-adv-x="728" 
d="M693 1406l-5.99805 -313.999c-140.667 10 -285.334 16 -434.001 18l6 -414l384 -4l-20 -234h-340v-289l400 6v-258c-206 6 -418.333 7 -637 3c13.333 447.333 9.66602 932.666 -11.001 1456zM187.002 1643c73.333 65.333 157 135.332 251 209.999l94 -149
c-74 -45.333 -158.667 -101.666 -254 -168.999z" />
    <glyph glyph-name="Ecircumflex" unicode="&#xca;" horiz-adv-x="728" 
d="M693 1406l-5.99805 -313.999c-140.667 10 -285.334 16 -434.001 18l6 -414l384 -4l-20 -234h-340v-289l400 6v-258c-206 6 -418.333 7 -637 3c13.333 447.333 9.66602 932.666 -11.001 1456zM668.002 1633l-86 -111l-227 122l-257 -123l-61 116l319 200z" />
    <glyph glyph-name="Edieresis" unicode="&#xcb;" horiz-adv-x="744" 
d="M695 1406l-5 -313.999c-141.333 10 -286 16 -434 18l5 -414l384 -4l-20 -234h-340v-289l401 6v-258c-206.667 6 -419 7 -637 3c12.667 447.333 8.66699 932.666 -12 1456zM264 1767.5c26 -26.333 39 -57.833 39 -94.5c0 -37.333 -13 -69.166 -39 -95.499
s-57.667 -39.5 -95 -39.5c-36.667 0 -68.167 13.167 -94.5 39.5s-39.5 58.166 -39.5 95.499c0 36.667 13.167 68.167 39.5 94.5s57.833 39.5 94.5 39.5c37.333 0 69 -13.167 95 -39.5zM670 1767.5c26 -26.333 39 -57.833 39 -94.5c0 -37.333 -13 -69.166 -39 -95.499
s-57.667 -39.5 -95 -39.5c-36.667 0 -68.167 13.167 -94.5 39.5s-39.5 58.166 -39.5 95.499c0 36.667 13.167 68.167 39.5 94.5s57.833 39.5 94.5 39.5c37.333 0 69 -13.167 95 -39.5z" />
    <glyph glyph-name="Igrave" unicode="&#xcc;" horiz-adv-x="414" 
d="M326 1373c-14.667 -415.333 -17.332 -860.001 -7.99902 -1334l-244 -7c17.333 380.667 19.666 825.334 6.99902 1334zM288.002 1529c-94.667 67.333 -179 123.667 -253 169l94 149c94 -74.667 177.333 -144.667 250 -210z" />
    <glyph glyph-name="Iacute" unicode="&#xcd;" horiz-adv-x="414" 
d="M335 1373c-15.333 -415.333 -18.333 -860.001 -9 -1334l-243 -7c16.667 380.667 19 825.334 7 1334zM35 1643c72.667 65.333 156.332 135.332 250.999 209.999l93 -149c-73.333 -45.333 -157.666 -101.666 -252.999 -168.999z" />
    <glyph glyph-name="Icircumflex" unicode="&#xce;" horiz-adv-x="701" 
d="M475 1373c-14.667 -415.333 -17.333 -860.001 -8 -1334l-244 -7c16.667 380.667 19 825.334 7 1334zM666.001 1633l-86 -111l-227 122l-257 -123l-61 116l319 200z" />
    <glyph glyph-name="Idieresis" unicode="&#xcf;" horiz-adv-x="744" 
d="M489 1373c-14.667 -415.333 -17.333 -860.001 -8 -1334l-244 -7c16.667 380.667 19 825.334 7 1334zM264.001 1767.5c26 -26.333 39 -57.833 39 -94.5c0 -37.333 -13 -69.166 -39 -95.499s-57.667 -39.5 -95 -39.5c-36.667 0 -68.167 13.167 -94.5 39.5
s-39.5 58.166 -39.5 95.499c0 36.667 13.167 68.167 39.5 94.5s57.833 39.5 94.5 39.5c37.333 0 69 -13.167 95 -39.5zM670.001 1767.5c26 -26.333 39 -57.833 39 -94.5c0 -37.333 -13 -69.166 -39 -95.499s-57.667 -39.5 -95 -39.5c-36.667 0 -68.167 13.167 -94.5 39.5
s-39.5 58.166 -39.5 95.499c0 36.667 13.167 68.167 39.5 94.5s57.833 39.5 94.5 39.5c37.333 0 69 -13.167 95 -39.5z" />
    <glyph glyph-name="Eth" unicode="&#xd0;" horiz-adv-x="1103" 
d="M159 1483l7 -1421c378.667 -36.667 623.667 48.166 735 254.499s136.333 427.833 75 664.5s-160.5 383.667 -297.5 441s-310.167 77.666 -519.5 60.999zM761 908.502c44.667 -173.667 37.332 -318.832 -22.001 -435.499s-181.666 -171.667 -366.999 -165l5 886
c211.333 -16.667 339.333 -111.834 384 -285.501zM34.998 654.004l519 -4l4 204l-515 8z" />
    <glyph glyph-name="Ntilde" unicode="&#xd1;" horiz-adv-x="907" 
d="M312 1287l342 -905.999c2 142 -2.33301 495.667 -13 1061h226c-8 -388 -6.33301 -901.333 5 -1540l-221 -10l-388 938c-5.33301 -278 -4.33301 -529 3 -753l-220 -6c6.66699 295.333 3 705.666 -11 1231zM225 1798c86.667 22.667 182.667 3.83105 288 -56.502
s156.666 -38.166 153.999 66.501l111 -8c-3.33301 -135.333 -40.166 -214.333 -110.499 -237s-161 -5 -272 53s-165.5 34.333 -163.5 -71l-130 -1c-4.66699 146.667 36.333 231.334 123 254.001z" />
    <glyph glyph-name="Ograve" unicode="&#xd2;" horiz-adv-x="1085" 
d="M201 195.5c-110.667 156.333 -153.832 354.666 -129.499 594.999s122.333 400.833 294 481.5s328.667 53.834 471 -80.499s197.666 -334 165.999 -599s-145.5 -436.5 -341.5 -514.5s-349.333 -38.833 -460 117.5zM805.502 629c16.333 141.333 -19.167 256 -106.5 344
s-180.666 92 -279.999 12s-146 -189.667 -140 -329s42 -239.166 108 -299.499s148.167 -65.333 246.5 -15s155.666 146.166 171.999 287.499zM595.002 1429c-95.333 67.333 -179.668 123.667 -253.001 169l93 149c94.667 -74.667 178.334 -144.667 251.001 -210z" />
    <glyph glyph-name="Oacute" unicode="&#xd3;" horiz-adv-x="1085" 
d="M201 195.5c-110.667 156.333 -153.832 354.666 -129.499 594.999s122.333 400.833 294 481.5s328.667 53.834 471 -80.499s197.666 -334 165.999 -599s-145.5 -436.5 -341.5 -514.5s-349.333 -38.833 -460 117.5zM805.502 629c16.333 141.333 -19.167 256 -106.5 344
s-180.666 92 -279.999 12s-146 -189.667 -140 -329s42 -239.166 108 -299.499s148.167 -65.333 246.5 -15s155.666 146.166 171.999 287.499zM343.002 1543c73.333 65.333 157 135.332 251 209.999l94 -149c-74 -45.333 -158.667 -101.666 -254 -168.999z" />
    <glyph glyph-name="Ocircumflex" unicode="&#xd4;" horiz-adv-x="1085" 
d="M201 195.5c-110.667 156.333 -153.832 354.666 -129.499 594.999s122.333 400.833 294 481.5s328.667 53.834 471 -80.499s197.666 -334 165.999 -599s-145.5 -436.5 -341.5 -514.5s-349.333 -38.833 -460 117.5zM805.502 629c16.333 141.333 -19.167 256 -106.5 344
s-180.666 92 -279.999 12s-146 -189.667 -140 -329s42 -239.166 108 -299.499s148.167 -65.333 246.5 -15s155.666 146.166 171.999 287.499zM844.002 1533l-86 -111l-227 122l-257 -123l-61 116l319 200z" />
    <glyph glyph-name="Otilde" unicode="&#xd5;" horiz-adv-x="1085" 
d="M201 195.5c-110.667 156.333 -153.832 354.666 -129.499 594.999s122.333 400.833 294 481.5s328.667 53.834 471 -80.499s197.666 -334 165.999 -599s-145.5 -436.5 -341.5 -514.5s-349.333 -38.833 -460 117.5zM805.502 629c16.333 141.333 -19.167 256 -106.5 344
s-180.666 92 -279.999 12s-146 -189.667 -140 -329s42 -239.166 108 -299.499s148.167 -65.333 246.5 -15s155.666 146.166 171.999 287.499zM311.002 1678c86.667 22.667 182.667 3.83105 288 -56.502s156.666 -38.166 153.999 66.501l111 -8
c-3.33301 -135.333 -40.166 -214.333 -110.499 -237s-161 -5 -272 53s-165.5 34.333 -163.5 -71l-130 -1c-4.66699 146.667 36.333 231.334 123 254.001z" />
    <glyph glyph-name="Odieresis" unicode="&#xd6;" horiz-adv-x="1085" 
d="M201 195.5c-110.667 156.333 -153.832 354.666 -129.499 594.999s122.333 400.833 294 481.5s328.667 53.834 471 -80.499s197.666 -334 165.999 -599s-145.5 -436.5 -341.5 -514.5s-349.333 -38.833 -460 117.5zM805.502 629c16.333 141.333 -19.167 256 -106.5 344
s-180.666 92 -279.999 12s-146 -189.667 -140 -329s42 -239.166 108 -299.499s148.167 -65.333 246.5 -15s155.666 146.166 171.999 287.499zM419.502 1646.5c26.333 -26.333 39.5 -57.833 39.5 -94.5c0 -37.333 -13.167 -69.166 -39.5 -95.499s-57.833 -39.5 -94.5 -39.5
c-37.333 0 -69 13.167 -95 39.5s-39 58.166 -39 95.499c0 36.667 13 68.167 39 94.5s57.667 39.5 95 39.5c36.667 0 68.167 -13.167 94.5 -39.5zM825.502 1646.5c26.333 -26.333 39.5 -57.833 39.5 -94.5c0 -37.333 -13.167 -69.166 -39.5 -95.499
s-57.833 -39.5 -94.5 -39.5c-37.333 0 -69 13.167 -95 39.5s-39 58.166 -39 95.499c0 36.667 13 68.167 39 94.5s57.667 39.5 95 39.5c36.667 0 68.167 -13.167 94.5 -39.5z" />
    <glyph glyph-name="Oslash" unicode="&#xd8;" horiz-adv-x="1085" 
d="M1002.5 592.5c31.667 265 -23.668 464.667 -166.001 599s-299.333 161.166 -471 80.499s-269.667 -241.167 -294 -481.5s18.834 -438.666 129.501 -594.999s264 -195.5 460 -117.5s309.833 249.5 341.5 514.5zM386.998 356.5c-66 60.333 -102 160.166 -108 299.499
s40.667 249 140 329s192.666 76 279.999 -12s122.833 -202.667 106.5 -344s-73.666 -237.166 -171.999 -287.499s-180.5 -45.333 -246.5 15zM274.998 -167c205.333 503.333 439.667 1027.33 703 1572l-199 95l-647 -1580z" />
    <glyph glyph-name="Ugrave" unicode="&#xd9;" horiz-adv-x="921" 
d="M834.5 268.5c-34.333 -139 -126.167 -232.333 -275.5 -280s-274 -3 -374 134s-140.667 504.833 -122 1103.5l232 7c-29.333 -546 -16.333 -859 39 -939s135.333 -84.667 240 -14s132.667 421.667 84 1053l228 10c0 -577.333 -17.167 -935.5 -51.5 -1074.5zM548.999 1429
c-95.333 67.333 -179.668 123.667 -253.001 169l93 149c94.667 -74.667 178.334 -144.667 251.001 -210z" />
    <glyph glyph-name="Uacute" unicode="&#xda;" horiz-adv-x="921" 
d="M834.5 268.5c-34.333 -139 -126.167 -232.333 -275.5 -280s-274 -3 -374 134s-140.667 504.833 -122 1103.5l232 7c-29.333 -546 -16.333 -859 39 -939s135.333 -84.667 240 -14s132.667 421.667 84 1053l228 10c0 -577.333 -17.167 -935.5 -51.5 -1074.5zM296.999 1543
c73.333 65.333 157 135.332 251 209.999l94 -149c-74 -45.333 -158.667 -101.666 -254 -168.999z" />
    <glyph glyph-name="Ucircumflex" unicode="&#xdb;" horiz-adv-x="921" 
d="M834.5 268.5c-34.333 -139 -126.167 -232.333 -275.5 -280s-274 -3 -374 134s-140.667 504.833 -122 1103.5l232 7c-29.333 -546 -16.333 -859 39 -939s135.333 -84.667 240 -14s132.667 421.667 84 1053l228 10c0 -577.333 -17.167 -935.5 -51.5 -1074.5zM777.999 1533
l-86 -111l-227 122l-257 -123l-61 116l319 200z" />
    <glyph glyph-name="Udieresis" unicode="&#xdc;" horiz-adv-x="921" 
d="M834.5 268.5c-34.333 -139 -126.167 -232.333 -275.5 -280s-274 -3 -374 134s-140.667 504.833 -122 1103.5l232 7c-29.333 -546 -16.333 -859 39 -939s135.333 -84.667 240 -14s132.667 421.667 84 1053l228 10c0 -577.333 -17.167 -935.5 -51.5 -1074.5z
M363.499 1646.5c26.333 -26.333 39.5 -57.833 39.5 -94.5c0 -37.333 -13.167 -69.166 -39.5 -95.499s-57.833 -39.5 -94.5 -39.5c-37.333 0 -69 13.167 -95 39.5s-39 58.166 -39 95.499c0 36.667 13 68.167 39 94.5s57.667 39.5 95 39.5c36.667 0 68.167 -13.167 94.5 -39.5
zM769.499 1646.5c26.333 -26.333 39.5 -57.833 39.5 -94.5c0 -37.333 -13.167 -69.166 -39.5 -95.499s-57.833 -39.5 -94.5 -39.5c-37.333 0 -69 13.167 -95 39.5s-39 58.166 -39 95.499c0 36.667 13 68.167 39 94.5s57.667 39.5 95 39.5
c36.667 0 68.167 -13.167 94.5 -39.5z" />
    <glyph glyph-name="Yacute" unicode="&#xdd;" horiz-adv-x="1074" 
d="M35 1294l232 44.001l244 -547l307 575l221 -57l-430 -748c-2 -236 0.666992 -439 8 -609l-242 -7c15.333 267.333 22 473.666 20 618.999zM370 1563c73.333 65.333 157 135.332 251 209.999l94 -149c-74 -45.333 -158.667 -101.666 -254 -168.999z" />
    <glyph glyph-name="Thorn" unicode="&#xde;" horiz-adv-x="927" 
d="M701.5 389c127 118 157.834 288.997 92.501 512.997s-272 311.333 -620 262l15 -264c125.333 48.667 233.166 47.334 323.499 -3.99902s122.333 -134.166 96 -248.499s-138.833 -169.166 -337.5 -164.499c-21.333 492 -29.666 813.667 -24.999 965l-211 -20
c1.33301 -338 4.66602 -825.333 9.99902 -1462l204 -4l8 278c169.333 -18.667 317.5 31 444.5 149z" />
    <glyph glyph-name="germandbls" unicode="&#xdf;" horiz-adv-x="1827" 
d="M41 423l204.001 18.999c21.333 -208.667 86.833 -307.5 196.5 -296.5s169.167 63.667 178.5 158s-82.5 188 -275.5 281s-292.833 245.333 -299.5 457s83.166 355.667 269.499 432s328.5 55.333 426.5 -63s142.333 -280.166 133 -485.499l-248 -19
c-13.333 243.333 -65.666 363 -156.999 359s-149.833 -60.5 -175.5 -169.5s6 -197 95 -264s186 -132.5 291 -196.5s164.333 -147.833 178 -251.5s-21.833 -213.167 -106.5 -328.5s-223.334 -162.5 -416.001 -141.5s-290.667 190.833 -294 509.5zM1787 1086l-235.002 -19
c-21.333 208.667 -81.833 307.5 -181.5 296.5s-154.167 -70.333 -163.5 -178s82.667 -201.334 276 -281.001s293.166 -225.334 299.499 -437.001s-83.5 -355.5 -269.5 -431.5s-328 -55 -426 63s-142.333 279.667 -133 485l248 19
c12.667 -243.333 64.834 -362.833 156.501 -358.5s150.334 60.833 176.001 169.5s-6.16602 189.834 -95.499 243.501l-291.5 176.5c-105 64 -164.167 162.833 -177.5 296.5s22.167 249.834 106.5 348.501s222.833 137.5 415.5 116.5s291 -190.833 295 -509.5z" />
    <glyph glyph-name="agrave" unicode="&#xe0;" 
d="M666 1467l331 -1491h-245l-51 346l-376 14l-52 -406l-238 -4c82 429.333 170.333 943 265 1541h366zM340 581l346 -7.99902c-64.667 273.333 -133.667 483.666 -207 630.999zM497 1529c-95.333 67.333 -179.668 123.667 -253.001 169l93 149
c94.667 -74.667 178.334 -144.667 251.001 -210z" />
    <glyph glyph-name="aacute" unicode="&#xe1;" 
d="M666 1467l331 -1491h-245l-51 346l-376 14l-52 -406l-238 -4c82 429.333 170.333 943 265 1541h366zM340 581l346 -7.99902c-64.667 273.333 -133.667 483.666 -207 630.999zM365 1643c73.333 65.333 157 135.332 251 209.999l94 -149
c-74 -45.333 -158.667 -101.666 -254 -168.999z" />
    <glyph glyph-name="acircumflex" unicode="&#xe2;" 
d="M666 1467l331 -1491h-245l-51 346l-376 14l-52 -406l-238 -4c82 429.333 170.333 943 265 1541h366zM340 581l346 -7.99902c-64.667 273.333 -133.667 483.666 -207 630.999zM806 1633l-86 -111l-227 122l-257 -123l-61 116l319 200z" />
    <glyph glyph-name="atilde" unicode="&#xe3;" 
d="M666 1467l331 -1491h-245l-51 346l-376 14l-52 -406l-238 -4c82 429.333 170.333 943 265 1541h366zM340 581l346 -7.99902c-64.667 273.333 -133.667 483.666 -207 630.999zM263 1798c86.667 22.667 182.667 3.83105 288 -56.502s156.666 -38.166 153.999 66.501l111 -8
c-3.33301 -135.333 -40.166 -214.333 -110.499 -237s-161 -5 -272 53s-165.5 34.333 -163.5 -71l-130 -1c-4.66699 146.667 36.333 231.334 123 254.001z" />
    <glyph glyph-name="adieresis" unicode="&#xe4;" 
d="M666 1467l331 -1491h-245l-51 346l-376 14l-52 -406l-238 -4c82 429.333 170.333 943 265 1541h366zM340 581l346 -7.99902c-64.667 273.333 -133.667 483.666 -207 630.999zM379.5 1767.5c26.333 -26.333 39.5 -57.833 39.5 -94.5
c0 -37.333 -13.167 -69.166 -39.5 -95.499s-57.833 -39.5 -94.5 -39.5c-37.333 0 -69 13.167 -95 39.5s-39 58.166 -39 95.499c0 36.667 13 68.167 39 94.5s57.667 39.5 95 39.5c36.667 0 68.167 -13.167 94.5 -39.5zM785.5 1767.5c26.333 -26.333 39.5 -57.833 39.5 -94.5
c0 -37.333 -13.167 -69.166 -39.5 -95.499s-57.833 -39.5 -94.5 -39.5c-37.333 0 -69 13.167 -95 39.5s-39 58.166 -39 95.499c0 36.667 13 68.167 39 94.5s57.667 39.5 95 39.5c36.667 0 68.167 -13.167 94.5 -39.5z" />
    <glyph glyph-name="aring" unicode="&#xe5;" 
d="M666 1467l331 -1491h-245l-51 346l-376 14l-52 -406l-238 -4c82 429.333 170.333 943 265 1541h366zM340 581l346 -7.99902c-64.667 273.333 -133.667 483.666 -207 630.999zM601.5 1836.5c36.333 -36.333 54.5 -79.833 54.5 -130.5
c0 -51.333 -18.167 -95.166 -54.5 -131.499s-80.166 -54.5 -131.499 -54.5c-50.667 0 -94.167 18.167 -130.5 54.5s-54.5 80.166 -54.5 131.499c0 50.667 18.167 94.167 54.5 130.5s79.833 54.5 130.5 54.5c51.333 0 95.166 -18.167 131.499 -54.5zM475 1776
c-21.333 0 -39.333 -6.66699 -54 -20s-22 -29.666 -22 -48.999c0 -18.667 7.33301 -34.834 22 -48.501s32.667 -20.5 54 -20.5s39.333 6.83301 54 20.5s22 29.834 22 48.501c0 19.333 -7.33301 35.666 -22 48.999s-32.667 20 -54 20z" />
    <glyph glyph-name="ae" unicode="&#xe6;" horiz-adv-x="1366" 
d="M340 581l346 -8l6 642l-213 -11zM35 -73l272 1553c402.667 -6.66699 744 0.666016 1024 21.999l-14 -318l-424 23l4 -420l376 -10l-9 -232h-344l-4 -290l393 8l8 -250h-644l14 308l-362 18l-53 -412h-237z" />
    <glyph glyph-name="ccedilla" unicode="&#xe7;" horiz-adv-x="1061" 
d="M759 861l250.001 76.999c-70.667 388 -229.667 557.5 -477 508.5s-392 -211.167 -434 -486.5s-13.833 -516.833 84.5 -724.5s237.666 -303.5 417.999 -287.5s296.333 105 348 267s68.834 276.667 51.501 344l-220 25c0 -219.333 -41.167 -342.5 -123.5 -369.5
s-163.333 4 -243 93s-111.334 243 -95.001 462s87 354.833 212 407.5s201.167 -52.666 228.5 -315.999zM526.001 27.999l-18 -179c84 -4 131.833 -26.167 143.5 -66.5s-13 -65.333 -74 -75s-91.5 17.5 -91.5 81.5l-135 -17c18.667 -108.667 75.667 -164 171 -166
s163 14.833 203 50.5s57 82.5 51 140.5s-52 99 -138 123l5 111z" />
    <glyph glyph-name="egrave" unicode="&#xe8;" horiz-adv-x="728" 
d="M693 1406l-5.99805 -313.999c-140.667 10 -285.334 16 -434.001 18l6 -414l384 -4l-20 -234h-340v-289l400 6v-258c-206 6 -418.333 7 -637 3c13.333 447.333 9.66602 932.666 -11.001 1456zM459.002 1529c-95.333 67.333 -179.668 123.667 -253.001 169l93 149
c94.667 -74.667 178.334 -144.667 251.001 -210z" />
    <glyph glyph-name="eacute" unicode="&#xe9;" horiz-adv-x="728" 
d="M693 1406l-5.99805 -313.999c-140.667 10 -285.334 16 -434.001 18l6 -414l384 -4l-20 -234h-340v-289l400 6v-258c-206 6 -418.333 7 -637 3c13.333 447.333 9.66602 932.666 -11.001 1456zM187.002 1643c73.333 65.333 157 135.332 251 209.999l94 -149
c-74 -45.333 -158.667 -101.666 -254 -168.999z" />
    <glyph glyph-name="ecircumflex" unicode="&#xea;" horiz-adv-x="728" 
d="M693 1406l-5.99805 -313.999c-140.667 10 -285.334 16 -434.001 18l6 -414l384 -4l-20 -234h-340v-289l400 6v-258c-206 6 -418.333 7 -637 3c13.333 447.333 9.66602 932.666 -11.001 1456zM668.002 1633l-86 -111l-227 122l-257 -123l-61 116l319 200z" />
    <glyph glyph-name="edieresis" unicode="&#xeb;" horiz-adv-x="744" 
d="M695 1406l-5 -313.999c-141.333 10 -286 16 -434 18l5 -414l384 -4l-20 -234h-340v-289l401 6v-258c-206.667 6 -419 7 -637 3c12.667 447.333 8.66699 932.666 -12 1456zM264 1767.5c26 -26.333 39 -57.833 39 -94.5c0 -37.333 -13 -69.166 -39 -95.499
s-57.667 -39.5 -95 -39.5c-36.667 0 -68.167 13.167 -94.5 39.5s-39.5 58.166 -39.5 95.499c0 36.667 13.167 68.167 39.5 94.5s57.833 39.5 94.5 39.5c37.333 0 69 -13.167 95 -39.5zM670 1767.5c26 -26.333 39 -57.833 39 -94.5c0 -37.333 -13 -69.166 -39 -95.499
s-57.667 -39.5 -95 -39.5c-36.667 0 -68.167 13.167 -94.5 39.5s-39.5 58.166 -39.5 95.499c0 36.667 13.167 68.167 39.5 94.5s57.833 39.5 94.5 39.5c37.333 0 69 -13.167 95 -39.5z" />
    <glyph glyph-name="igrave" unicode="&#xec;" horiz-adv-x="414" 
d="M326 1373c-14.667 -415.333 -17.332 -860.001 -7.99902 -1334l-244 -7c17.333 380.667 19.666 825.334 6.99902 1334zM288.002 1529c-94.667 67.333 -179 123.667 -253 169l94 149c94 -74.667 177.333 -144.667 250 -210z" />
    <glyph glyph-name="iacute" unicode="&#xed;" horiz-adv-x="414" 
d="M335 1373c-15.333 -415.333 -18.333 -860.001 -9 -1334l-243 -7c16.667 380.667 19 825.334 7 1334zM35 1643c72.667 65.333 156.332 135.332 250.999 209.999l93 -149c-73.333 -45.333 -157.666 -101.666 -252.999 -168.999z" />
    <glyph glyph-name="icircumflex" unicode="&#xee;" horiz-adv-x="701" 
d="M475 1373c-14.667 -415.333 -17.333 -860.001 -8 -1334l-244 -7c16.667 380.667 19 825.334 7 1334zM666.001 1633l-86 -111l-227 122l-257 -123l-61 116l319 200z" />
    <glyph glyph-name="idieresis" unicode="&#xef;" horiz-adv-x="744" 
d="M489 1373c-14.667 -415.333 -17.333 -860.001 -8 -1334l-244 -7c16.667 380.667 19 825.334 7 1334zM264.001 1767.5c26 -26.333 39 -57.833 39 -94.5c0 -37.333 -13 -69.166 -39 -95.499s-57.667 -39.5 -95 -39.5c-36.667 0 -68.167 13.167 -94.5 39.5
s-39.5 58.166 -39.5 95.499c0 36.667 13.167 68.167 39.5 94.5s57.833 39.5 94.5 39.5c37.333 0 69 -13.167 95 -39.5zM670.001 1767.5c26 -26.333 39 -57.833 39 -94.5c0 -37.333 -13 -69.166 -39 -95.499s-57.667 -39.5 -95 -39.5c-36.667 0 -68.167 13.167 -94.5 39.5
s-39.5 58.166 -39.5 95.499c0 36.667 13.167 68.167 39.5 94.5s57.833 39.5 94.5 39.5c37.333 0 69 -13.167 95 -39.5z" />
    <glyph glyph-name="eth" unicode="&#xf0;" horiz-adv-x="1103" 
d="M159 1483l7 -1421c378.667 -36.667 623.667 48.166 735 254.499s136.333 427.833 75 664.5s-160.5 383.667 -297.5 441s-310.167 77.666 -519.5 60.999zM761 908.502c44.667 -173.667 37.332 -318.832 -22.001 -435.499s-181.666 -171.667 -366.999 -165l5 886
c211.333 -16.667 339.333 -111.834 384 -285.501zM34.998 654.004l519 -4l4 204l-515 8z" />
    <glyph glyph-name="ntilde" unicode="&#xf1;" horiz-adv-x="907" 
d="M312 1287l342 -905.999c2 142 -2.33301 495.667 -13 1061h226c-8 -388 -6.33301 -901.333 5 -1540l-221 -10l-388 938c-5.33301 -278 -4.33301 -529 3 -753l-220 -6c6.66699 295.333 3 705.666 -11 1231zM225 1798c86.667 22.667 182.667 3.83105 288 -56.502
s156.666 -38.166 153.999 66.501l111 -8c-3.33301 -135.333 -40.166 -214.333 -110.499 -237s-161 -5 -272 53s-165.5 34.333 -163.5 -71l-130 -1c-4.66699 146.667 36.333 231.334 123 254.001z" />
    <glyph glyph-name="ograve" unicode="&#xf2;" horiz-adv-x="1085" 
d="M201 195.5c-110.667 156.333 -153.832 354.666 -129.499 594.999s122.333 400.833 294 481.5s328.667 53.834 471 -80.499s197.666 -334 165.999 -599s-145.5 -436.5 -341.5 -514.5s-349.333 -38.833 -460 117.5zM805.502 629c16.333 141.333 -19.167 256 -106.5 344
s-180.666 92 -279.999 12s-146 -189.667 -140 -329s42 -239.166 108 -299.499s148.167 -65.333 246.5 -15s155.666 146.166 171.999 287.499zM595.002 1429c-95.333 67.333 -179.668 123.667 -253.001 169l93 149c94.667 -74.667 178.334 -144.667 251.001 -210z" />
    <glyph glyph-name="oacute" unicode="&#xf3;" horiz-adv-x="1085" 
d="M201 195.5c-110.667 156.333 -153.832 354.666 -129.499 594.999s122.333 400.833 294 481.5s328.667 53.834 471 -80.499s197.666 -334 165.999 -599s-145.5 -436.5 -341.5 -514.5s-349.333 -38.833 -460 117.5zM805.502 629c16.333 141.333 -19.167 256 -106.5 344
s-180.666 92 -279.999 12s-146 -189.667 -140 -329s42 -239.166 108 -299.499s148.167 -65.333 246.5 -15s155.666 146.166 171.999 287.499zM343.002 1543c73.333 65.333 157 135.332 251 209.999l94 -149c-74 -45.333 -158.667 -101.666 -254 -168.999z" />
    <glyph glyph-name="ocircumflex" unicode="&#xf4;" horiz-adv-x="1085" 
d="M201 195.5c-110.667 156.333 -153.832 354.666 -129.499 594.999s122.333 400.833 294 481.5s328.667 53.834 471 -80.499s197.666 -334 165.999 -599s-145.5 -436.5 -341.5 -514.5s-349.333 -38.833 -460 117.5zM805.502 629c16.333 141.333 -19.167 256 -106.5 344
s-180.666 92 -279.999 12s-146 -189.667 -140 -329s42 -239.166 108 -299.499s148.167 -65.333 246.5 -15s155.666 146.166 171.999 287.499zM844.002 1533l-86 -111l-227 122l-257 -123l-61 116l319 200z" />
    <glyph glyph-name="otilde" unicode="&#xf5;" horiz-adv-x="1085" 
d="M201 195.5c-110.667 156.333 -153.832 354.666 -129.499 594.999s122.333 400.833 294 481.5s328.667 53.834 471 -80.499s197.666 -334 165.999 -599s-145.5 -436.5 -341.5 -514.5s-349.333 -38.833 -460 117.5zM805.502 629c16.333 141.333 -19.167 256 -106.5 344
s-180.666 92 -279.999 12s-146 -189.667 -140 -329s42 -239.166 108 -299.499s148.167 -65.333 246.5 -15s155.666 146.166 171.999 287.499zM311.002 1678c86.667 22.667 182.667 3.83105 288 -56.502s156.666 -38.166 153.999 66.501l111 -8
c-3.33301 -135.333 -40.166 -214.333 -110.499 -237s-161 -5 -272 53s-165.5 34.333 -163.5 -71l-130 -1c-4.66699 146.667 36.333 231.334 123 254.001z" />
    <glyph glyph-name="odieresis" unicode="&#xf6;" horiz-adv-x="1085" 
d="M201 195.5c-110.667 156.333 -153.832 354.666 -129.499 594.999s122.333 400.833 294 481.5s328.667 53.834 471 -80.499s197.666 -334 165.999 -599s-145.5 -436.5 -341.5 -514.5s-349.333 -38.833 -460 117.5zM805.502 629c16.333 141.333 -19.167 256 -106.5 344
s-180.666 92 -279.999 12s-146 -189.667 -140 -329s42 -239.166 108 -299.499s148.167 -65.333 246.5 -15s155.666 146.166 171.999 287.499zM419.502 1646.5c26.333 -26.333 39.5 -57.833 39.5 -94.5c0 -37.333 -13.167 -69.166 -39.5 -95.499s-57.833 -39.5 -94.5 -39.5
c-37.333 0 -69 13.167 -95 39.5s-39 58.166 -39 95.499c0 36.667 13 68.167 39 94.5s57.667 39.5 95 39.5c36.667 0 68.167 -13.167 94.5 -39.5zM825.502 1646.5c26.333 -26.333 39.5 -57.833 39.5 -94.5c0 -37.333 -13.167 -69.166 -39.5 -95.499
s-57.833 -39.5 -94.5 -39.5c-37.333 0 -69 13.167 -95 39.5s-39 58.166 -39 95.499c0 36.667 13 68.167 39 94.5s57.667 39.5 95 39.5c36.667 0 68.167 -13.167 94.5 -39.5z" />
    <glyph glyph-name="oslash" unicode="&#xf8;" horiz-adv-x="1085" 
d="M1002.5 592.5c31.667 265 -23.668 464.667 -166.001 599s-299.333 161.166 -471 80.499s-269.667 -241.167 -294 -481.5s18.834 -438.666 129.501 -594.999s264 -195.5 460 -117.5s309.833 249.5 341.5 514.5zM386.998 356.5c-66 60.333 -102 160.166 -108 299.499
s40.667 249 140 329s192.666 76 279.999 -12s122.833 -202.667 106.5 -344s-73.666 -237.166 -171.999 -287.499s-180.5 -45.333 -246.5 15zM274.998 -167c205.333 503.333 439.667 1027.33 703 1572l-199 95l-647 -1580z" />
    <glyph glyph-name="ugrave" unicode="&#xf9;" horiz-adv-x="921" 
d="M834.5 268.5c-34.333 -139 -126.167 -232.333 -275.5 -280s-274 -3 -374 134s-140.667 504.833 -122 1103.5l232 7c-29.333 -546 -16.333 -859 39 -939s135.333 -84.667 240 -14s132.667 421.667 84 1053l228 10c0 -577.333 -17.167 -935.5 -51.5 -1074.5zM548.999 1429
c-95.333 67.333 -179.668 123.667 -253.001 169l93 149c94.667 -74.667 178.334 -144.667 251.001 -210z" />
    <glyph glyph-name="uacute" unicode="&#xfa;" horiz-adv-x="921" 
d="M834.5 268.5c-34.333 -139 -126.167 -232.333 -275.5 -280s-274 -3 -374 134s-140.667 504.833 -122 1103.5l232 7c-29.333 -546 -16.333 -859 39 -939s135.333 -84.667 240 -14s132.667 421.667 84 1053l228 10c0 -577.333 -17.167 -935.5 -51.5 -1074.5zM296.999 1543
c73.333 65.333 157 135.332 251 209.999l94 -149c-74 -45.333 -158.667 -101.666 -254 -168.999z" />
    <glyph glyph-name="ucircumflex" unicode="&#xfb;" horiz-adv-x="921" 
d="M834.5 268.5c-34.333 -139 -126.167 -232.333 -275.5 -280s-274 -3 -374 134s-140.667 504.833 -122 1103.5l232 7c-29.333 -546 -16.333 -859 39 -939s135.333 -84.667 240 -14s132.667 421.667 84 1053l228 10c0 -577.333 -17.167 -935.5 -51.5 -1074.5zM777.999 1533
l-86 -111l-227 122l-257 -123l-61 116l319 200z" />
    <glyph glyph-name="udieresis" unicode="&#xfc;" horiz-adv-x="921" 
d="M834.5 268.5c-34.333 -139 -126.167 -232.333 -275.5 -280s-274 -3 -374 134s-140.667 504.833 -122 1103.5l232 7c-29.333 -546 -16.333 -859 39 -939s135.333 -84.667 240 -14s132.667 421.667 84 1053l228 10c0 -577.333 -17.167 -935.5 -51.5 -1074.5z
M363.499 1646.5c26.333 -26.333 39.5 -57.833 39.5 -94.5c0 -37.333 -13.167 -69.166 -39.5 -95.499s-57.833 -39.5 -94.5 -39.5c-37.333 0 -69 13.167 -95 39.5s-39 58.166 -39 95.499c0 36.667 13 68.167 39 94.5s57.667 39.5 95 39.5c36.667 0 68.167 -13.167 94.5 -39.5
zM769.499 1646.5c26.333 -26.333 39.5 -57.833 39.5 -94.5c0 -37.333 -13.167 -69.166 -39.5 -95.499s-57.833 -39.5 -94.5 -39.5c-37.333 0 -69 13.167 -95 39.5s-39 58.166 -39 95.499c0 36.667 13 68.167 39 94.5s57.667 39.5 95 39.5
c36.667 0 68.167 -13.167 94.5 -39.5z" />
    <glyph glyph-name="yacute" unicode="&#xfd;" horiz-adv-x="1074" 
d="M35 1294l232 44.001l244 -547l307 575l221 -57l-430 -748c-2 -236 0.666992 -439 8 -609l-242 -7c15.333 267.333 22 473.666 20 618.999zM370 1563c73.333 65.333 157 135.332 251 209.999l94 -149c-74 -45.333 -158.667 -101.666 -254 -168.999z" />
    <glyph glyph-name="thorn" unicode="&#xfe;" horiz-adv-x="927" 
d="M701.5 389c127 118 157.834 288.997 92.501 512.997s-272 311.333 -620 262l15 -264c125.333 48.667 233.166 47.334 323.499 -3.99902s122.333 -134.166 96 -248.499s-138.833 -169.166 -337.5 -164.499c-21.333 492 -29.666 813.667 -24.999 965l-211 -20
c1.33301 -338 4.66602 -825.333 9.99902 -1462l204 -4l8 278c169.333 -18.667 317.5 31 444.5 149z" />
    <glyph glyph-name="ydieresis" unicode="&#xff;" horiz-adv-x="1074" 
d="M35 1294l232 44.001l244 -547l307 575l221 -57l-430 -748c-2 -236 0.666992 -439 8 -609l-242 -7c15.333 267.333 22 473.666 20 618.999zM426.5 1656.5c26.333 -26.333 39.5 -57.833 39.5 -94.5c0 -37.333 -13.167 -69.166 -39.5 -95.499s-57.833 -39.5 -94.5 -39.5
c-37.333 0 -69 13.167 -95 39.5s-39 58.166 -39 95.499c0 36.667 13 68.167 39 94.5s57.667 39.5 95 39.5c36.667 0 68.167 -13.167 94.5 -39.5zM832.5 1656.5c26.333 -26.333 39.5 -57.833 39.5 -94.5c0 -37.333 -13.167 -69.166 -39.5 -95.499s-57.833 -39.5 -94.5 -39.5
c-37.333 0 -69 13.167 -95 39.5s-39 58.166 -39 95.499c0 36.667 13 68.167 39 94.5s57.667 39.5 95 39.5c36.667 0 68.167 -13.167 94.5 -39.5z" />
    <glyph glyph-name="dotlessi" unicode="&#x131;" horiz-adv-x="322" 
d="M287 1373c-14.667 -415.333 -17.333 -860.001 -8 -1334l-244 -7c16.667 380.667 19 825.334 7 1334z" />
    <glyph glyph-name="OE" unicode="&#x152;" horiz-adv-x="1540" 
d="M1002.5 592.5c31.667 265 -23.668 464.667 -166.001 599s-299.333 161.166 -471 80.499s-269.667 -241.167 -294 -481.5s18.834 -438.666 129.501 -594.999s264 -195.5 460 -117.5s309.833 249.5 341.5 514.5zM386.998 356.5c-66 60.333 -102 160.166 -108 299.499
s40.667 249 140 329s192.666 76 279.999 -12s122.833 -202.667 106.5 -344s-73.666 -237.166 -171.999 -287.499s-180.5 -45.333 -246.5 15zM799.998 1342c20.667 -456.667 24.332 -908.667 10.999 -1356c218.667 4 431 3 637 -3v258l-400 -6v289h340l20 234l-384 4l-6 314
c148.667 -2 293.334 -8 434.001 -18l6 314z" />
    <glyph glyph-name="oe" unicode="&#x153;" horiz-adv-x="1540" 
d="M1002.5 592.5c31.667 265 -23.668 464.667 -166.001 599s-299.333 161.166 -471 80.499s-269.667 -241.167 -294 -481.5s18.834 -438.666 129.501 -594.999s264 -195.5 460 -117.5s309.833 249.5 341.5 514.5zM386.998 356.5c-66 60.333 -102 160.166 -108 299.499
s40.667 249 140 329s192.666 76 279.999 -12s122.833 -202.667 106.5 -344s-73.666 -237.166 -171.999 -287.499s-180.5 -45.333 -246.5 15zM799.998 1342c20.667 -456.667 24.332 -908.667 10.999 -1356c218.667 4 431 3 637 -3v258l-400 -6v289h340l20 234l-384 4l-6 314
c148.667 -2 293.334 -8 434.001 -18l6 314z" />
    <glyph glyph-name="Scaron" unicode="&#x160;" horiz-adv-x="923" 
d="M41 423l204.001 18.999c21.333 -208.667 86.833 -307.5 196.5 -296.5s169.167 63.667 178.5 158s-82.5 188 -275.5 281s-292.833 245.333 -299.5 457s83.166 355.667 269.499 432s328.5 55.333 426.5 -63s142.333 -280.166 133 -485.499l-248 -19
c-13.333 243.333 -65.666 363 -156.999 359s-149.833 -60.5 -175.5 -169.5s6 -197 95 -264s186 -132.5 291 -196.5s164.333 -147.833 178 -251.5s-21.833 -213.167 -106.5 -328.5s-223.334 -162.5 -416.001 -141.5s-290.667 190.833 -294 509.5zM471.001 1582l-319 200
l61 116l257 -123l227 122l86 -111z" />
    <glyph glyph-name="scaron" unicode="&#x161;" horiz-adv-x="923" 
d="M41 423l204.001 18.999c21.333 -208.667 86.833 -307.5 196.5 -296.5s169.167 63.667 178.5 158s-82.5 188 -275.5 281s-292.833 245.333 -299.5 457s83.166 355.667 269.499 432s328.5 55.333 426.5 -63s142.333 -280.166 133 -485.499l-248 -19
c-13.333 243.333 -65.666 363 -156.999 359s-149.833 -60.5 -175.5 -169.5s6 -197 95 -264s186 -132.5 291 -196.5s164.333 -147.833 178 -251.5s-21.833 -213.167 -106.5 -328.5s-223.334 -162.5 -416.001 -141.5s-290.667 190.833 -294 509.5zM471.001 1582l-319 200
l61 116l257 -123l227 122l86 -111z" />
    <glyph glyph-name="Ydieresis" unicode="&#x178;" horiz-adv-x="1074" 
d="M35 1294l232 44.001l244 -547l307 575l221 -57l-430 -748c-2 -236 0.666992 -439 8 -609l-242 -7c15.333 267.333 22 473.666 20 618.999zM426.5 1656.5c26.333 -26.333 39.5 -57.833 39.5 -94.5c0 -37.333 -13.167 -69.166 -39.5 -95.499s-57.833 -39.5 -94.5 -39.5
c-37.333 0 -69 13.167 -95 39.5s-39 58.166 -39 95.499c0 36.667 13 68.167 39 94.5s57.667 39.5 95 39.5c36.667 0 68.167 -13.167 94.5 -39.5zM832.5 1656.5c26.333 -26.333 39.5 -57.833 39.5 -94.5c0 -37.333 -13.167 -69.166 -39.5 -95.499s-57.833 -39.5 -94.5 -39.5
c-37.333 0 -69 13.167 -95 39.5s-39 58.166 -39 95.499c0 36.667 13 68.167 39 94.5s57.667 39.5 95 39.5c36.667 0 68.167 -13.167 94.5 -39.5z" />
    <glyph glyph-name="Zcaron" unicode="&#x17d;" horiz-adv-x="811" 
d="M724 1340l10 -287.001l-443 -800l485 31l-12 -270c-187.333 0 -422.333 -3.66699 -705 -11l-6 256l426 813c-116 -5.33301 -264 -13.666 -444 -24.999l6 261zM411 1473l-319 200l61 116l257 -123l227 122l86 -111z" />
    <glyph glyph-name="zcaron" unicode="&#x17e;" horiz-adv-x="811" 
d="M724 1340l10 -287.001l-443 -800l485 31l-12 -270c-187.333 0 -422.333 -3.66699 -705 -11l-6 256l426 813c-116 -5.33301 -264 -13.666 -444 -24.999l6 261zM411 1473l-319 200l61 116l257 -123l227 122l86 -111z" />
    <glyph glyph-name="endash" unicode="&#x2013;" horiz-adv-x="701" 
d="M57 757l596 17l-13 -239l-587 22z" />
    <glyph glyph-name="emdash" unicode="&#x2014;" horiz-adv-x="883" 
d="M57 757l786 -3l-3 -199l-787 2z" />
    <glyph glyph-name="quoteleft" unicode="&#x2018;" horiz-adv-x="373" 
d="M309 1160l2.99902 -266.998l-273 -9c-13.333 207.333 3 354.166 49 440.499s108 130.833 186 133.5l17 -130c-75.333 -20.667 -115.666 -74.334 -120.999 -161.001z" />
    <glyph glyph-name="quoteright" unicode="&#x2019;" horiz-adv-x="373" 
d="M48 1162l-12.999 286.998l283 9c13.333 -207.333 -3 -354.166 -49 -440.499s-108 -130.833 -186 -133.5l-17 130c75.333 20.667 115.666 74.334 120.999 161.001z" />
    <glyph glyph-name="quotesinglbase" unicode="&#x201a;" horiz-adv-x="373" 
d="M48 -13l-12.999 286.998l283 9c13.333 -207.333 -3 -354.166 -49 -440.499s-108 -130.833 -186 -133.5l-17 130c75.333 20.667 115.666 74.334 120.999 161.001z" />
    <glyph glyph-name="quotedblleft" unicode="&#x201c;" horiz-adv-x="731" 
d="M679 1150l2.99902 -256.998l-273 -9c-13.333 207.333 3 354.166 49 440.499s108 130.833 186 133.5l17 -130c-75.333 -20.667 -115.666 -74.334 -120.999 -161.001zM308.999 1180l-7.00098 -286.998l-263 -9c-13.333 207.333 3 354.166 49 440.499s108 130.833 186 133.5
l17 -130c-75.333 -20.667 -115.666 -74.334 -120.999 -161.001z" />
    <glyph glyph-name="quotedblright" unicode="&#x201d;" horiz-adv-x="731" 
d="M48 1162l-12.999 286.998l283 9c13.333 -207.333 -3 -354.166 -49 -440.499s-108 -130.833 -186 -133.5l-17 130c75.333 20.667 115.666 74.334 120.999 161.001zM418.001 1162l-12.999 286.998l283 9c13.333 -207.333 -3 -354.166 -49 -440.499
s-108 -130.833 -186 -133.5l-17 130c75.333 20.667 115.666 74.334 120.999 161.001z" />
    <glyph glyph-name="quotedblbase" unicode="&#x201e;" horiz-adv-x="731" 
d="M48 -9l-12.999 286.998l283 9c13.333 -207.333 -3 -354.166 -49 -440.499s-108 -130.833 -186 -133.5l-17 130c75.333 20.667 115.666 74.334 120.999 161.001zM418.001 -9.00195l-12.999 286.998l283 9c13.333 -207.333 -3 -354.166 -49 -440.499
s-108 -130.833 -186 -133.5l-17 130c75.333 20.667 115.666 74.334 120.999 161.001z" />
    <glyph glyph-name="bullet" unicode="&#x2022;" horiz-adv-x="351" 
d="M42 602c-1.33301 108 -1.66699 200.333 -1 277h262l-7 -285z" />
    <glyph glyph-name="ellipsis" unicode="&#x2026;" horiz-adv-x="1257" 
d="M48 -4c-6 108 -10.333 200.333 -13 277l281 12l-13 -285zM444 16c0 108 1 200.333 3 277l261 -2l-9 -285zM858 4c-6 108 -10.333 200.333 -13 277l281 12l-13 -285z" />
  </font>
</defs>
</svg>
